<svg
  xmlns="http://www.w3.org/2000/svg"
  xmlns:xlink="http://www.w3.org/1999/xlink">

  <symbol viewBox="-10 0 540 70" id="mQ-logo-white-login">
    <path id="mQlogowhitelogin-bezier" stroke="none" fill="rgb(255, 255, 255)" d="M 273.6,2.18 L 277.4,2.18 277.4,46.33 273.6,46.33 273.6,2.18 Z M 273.6,2.18" />
    <path id="mQlogowhitelogin-bezier2" stroke="none" fill="rgb(255, 255, 255)" d="M 239.01,22.81 L 209.24,22.81 209.24,2.18 205.44,2.18 205.44,46.34 209.24,46.34 209.24,26.61 239.01,26.61 239.01,46.34 242.81,46.34 242.81,2.18 239.01,2.18 239.01,22.81 Z M 239.01,22.81" />
    <path id="mQlogowhitelogin-bezier3" stroke="none" fill="rgb(255, 255, 255)" d="M 344.93,42.54 L 344.55,42.54 314.91,2.18 308.77,2.18 308.77,46.34 312.57,46.34 312.57,5.98 312.99,5.98 342.62,46.34 348.73,46.34 348.73,2.18 344.93,2.18 344.93,42.54 Z M 344.93,42.54" />
    <rect id="mQlogowhitelogin-rectangle" stroke="none" fill="rgb(255, 255, 255)" x="378.95" y="2.2" width="34.3" height="3.8" />
    <path id="mQlogowhitelogin-bezier4" stroke="none" fill="rgb(255, 255, 255)" d="M 382.77,29.53 C 382.77,27.92 384.09,26.61 385.71,26.61 L 406.69,26.61 406.69,22.81 385.71,22.81 C 381.99,22.81 378.97,25.82 378.97,29.53 L 378.97,46.34 413.27,46.34 413.27,42.54 382.77,42.54 382.77,29.53 Z M 382.77,29.53" />
    <path id="mQlogowhitelogin-bezier5" stroke="none" fill="rgb(255, 255, 255)" d="M 23.56,25.52 C 23.5,25.6 23.39,25.65 23.27,25.65 23.15,25.65 23.03,25.6 22.98,25.52 L 6.11,2.23 0,2.23 0,46.33 3.8,46.33 3.8,6.03 4.17,6.03 19.9,27.75 C 20.68,28.83 21.94,29.47 23.27,29.47 24.6,29.47 25.86,28.83 26.64,27.75 L 42.36,6.03 42.73,6.03 42.73,46.33 46.53,46.33 46.53,2.23 40.42,2.23 23.56,25.52 Z M 23.56,25.52" />
    <path id="mQlogowhitelogin-bezier6" stroke="none" fill="rgb(255, 255, 255)" d="M 175.75,33.46 C 172.33,39.75 165.75,43.66 158.56,43.66 147.8,43.66 139.04,34.95 139.04,24.25 139.04,13.55 147.8,4.84 158.56,4.84 165.72,4.84 172.3,8.73 175.72,15 L 175.91,15.35 179.24,13.53 179.05,13.18 C 174.96,5.69 167.11,1.04 158.55,1.04 145.69,1.04 135.24,11.45 135.24,24.25 135.24,37.05 145.7,47.46 158.55,47.46 167.13,47.46 174.99,42.79 179.07,35.27 L 179.26,34.92 175.92,33.11 175.75,33.46 Z M 175.75,33.46" />
    <path id="mQlogowhitelogin-bezier7" stroke="none" fill="rgb(255, 255, 255)" d="M 92.5,2.18 L 103.77,27.53 84.15,27.53 C 81.51,27.53 79.11,29.08 78.03,31.48 L 71.36,46.34 75.52,46.34 81.49,33.04 C 81.96,32 83,31.33 84.15,31.33 L 105.46,31.33 112.13,46.34 116.29,46.34 96.65,2.18 92.5,2.18 Z M 92.5,2.18" />
    <path id="mQlogowhitelogin-bezier8" stroke="none" fill="rgb(255, 71, 19)" d="M 469.65,31.43 L 464.22,24.08 456.54,29.79 462.15,37.35 457.82,37.46 C 450.32,37.46 443.82,30.94 443.82,23.44 443.82,15.03 450.52,9.04 458.02,9.04 466.38,9.04 472.25,15.8 472.25,23.54 472.24,26.21 471.3,29.23 469.65,31.43 Z M 476.75,36.77 C 479.58,32.85 481.18,28.09 481.18,23.17 481.18,7.19 464.91,-5.07 448.07,2.09 443.07,4.21 439.06,8.22 436.94,13.22 429.78,30.07 442.03,46.33 458.02,46.33 L 484.79,46.33 484.79,36.76 476.75,36.76 476.75,36.77 Z M 476.75,36.77" />
    <path id="mQlogowhitelogin-bezier9" stroke="none" fill="rgb(255, 255, 255)" d="M 496.43,3.08 L 492.87,3.08 492.87,2.18 500.95,2.18 500.95,3.08 497.39,3.08 497.39,13.22 496.43,13.22 496.43,3.08 Z M 496.43,3.08" />
    <path id="mQlogowhitelogin-bezier10" stroke="none" fill="rgb(255, 255, 255)" d="M 514.46,2.18 L 510.38,7.98 506.18,2.18 505.26,2.18 505.26,13.22 506.18,13.22 506.18,3.69 509.93,8.95 510.73,8.95 514.46,3.68 514.46,13.22 515.39,13.22 515.39,2.18 514.46,2.18 Z M 514.46,2.18" />
    <path id="mQlogowhitelogin-bezier11" stroke="none" fill="rgb(255, 255, 255)" d="M 138.87,73.05 L 136.82,67.46 136.79,67.46 134.71,73.05 138.87,73.05 Z M 139.23,74.03 L 134.35,74.03 132.92,77.88 131.9,77.88 136.27,66.24 137.39,66.24 141.68,77.88 140.64,77.88 139.23,74.03 Z M 139.23,74.03" />
    <path id="mQlogowhitelogin-bezier12" stroke="none" fill="rgb(255, 255, 255)" d="M 153.2,72.13 C 153.2,68.7 155.17,66 158.5,66 161.46,66 163.02,67.95 163.23,70.14 L 162.25,70.14 C 162.01,68.39 160.59,66.97 158.48,66.97 155.59,66.97 154.22,69.41 154.22,72.12 154.22,74.9 155.68,77.17 158.49,77.17 160.8,77.17 161.94,75.61 162.23,74.16 L 163.22,74.16 C 162.91,76.22 161.25,78.14 158.47,78.14 155.22,78.16 153.2,75.73 153.2,72.13 Z M 153.2,72.13" />
    <path id="mQlogowhitelogin-bezier13" stroke="none" fill="rgb(255, 255, 255)" d="M 178.08,72.09 C 178.06,69.18 176.42,66.97 173.6,66.97 170.76,66.97 169.13,69.18 169.1,72.09 169.13,74.97 170.76,77.18 173.6,77.18 176.42,77.18 178.09,74.97 178.08,72.09 Z M 168.07,72.09 C 168.07,68.74 170.09,66 173.6,66 177.11,66 179.11,68.75 179.11,72.09 179.11,75.41 177.11,78.15 173.6,78.15 170.08,78.16 168.07,75.41 168.07,72.09 Z M 168.07,72.09" />
    <path id="mQlogowhitelogin-bezier14" stroke="none" fill="rgb(255, 255, 255)" d="M 184.85,66.24 L 185.83,66.24 190.25,72.35 194.56,66.24 195.54,66.24 195.54,77.88 194.56,77.88 194.56,67.82 190.63,73.38 189.79,73.38 185.84,67.84 185.84,77.88 184.86,77.88 184.86,66.24 184.85,66.24 Z M 184.85,66.24" />
    <path id="mQlogowhitelogin-bezier15" stroke="none" fill="rgb(255, 255, 255)" d="M 201.29,72.13 C 201.29,68.7 203.26,66 206.59,66 209.55,66 211.11,67.95 211.32,70.14 L 210.34,70.14 C 210.1,68.39 208.68,66.97 206.57,66.97 203.68,66.97 202.31,69.41 202.31,72.12 202.31,74.9 203.77,77.17 206.58,77.17 208.89,77.17 210.03,75.61 210.32,74.16 L 211.31,74.16 C 211,76.22 209.34,78.14 206.56,78.14 203.31,78.16 201.29,75.73 201.29,72.13 Z M 201.29,72.13" />
    <path id="mQlogowhitelogin-bezier16" stroke="none" fill="rgb(255, 255, 255)" d="M 222.45,73.05 L 220.4,67.46 220.37,67.46 218.29,73.05 222.45,73.05 Z M 222.8,74.03 L 217.92,74.03 216.49,77.88 215.47,77.88 219.84,66.24 220.96,66.24 225.25,77.88 224.21,77.88 222.8,74.03 Z M 222.8,74.03" />
    <path id="mQlogowhitelogin-bezier17" stroke="none" fill="rgb(255, 255, 255)" d="M 229.45,74.26 L 230.44,74.26 C 230.42,76.36 231.74,77.23 233.79,77.23 235.61,77.23 236.88,76.55 236.88,74.97 236.88,73.28 235.24,72.84 233.63,72.37 231.61,71.8 229.81,71.1 229.81,69.07 229.81,66.94 231.7,66 233.63,66 235.69,66 237.63,66.94 237.71,69.59 L 236.72,69.59 C 236.66,67.61 235.19,66.92 233.63,66.92 232.18,66.92 230.82,67.44 230.82,68.98 230.82,70.36 231.99,70.85 234.02,71.47 236.05,72.09 237.87,72.66 237.87,74.85 237.87,77.01 236.07,78.15 233.76,78.15 231.15,78.16 229.43,76.94 229.45,74.26 Z M 229.45,74.26" />
    <path id="mQlogowhitelogin-bezier18" stroke="none" fill="rgb(255, 255, 255)" d="M 245.87,67.19 L 242.12,67.19 242.12,66.25 250.64,66.25 250.64,67.19 246.89,67.19 246.89,77.88 245.88,77.88 245.88,67.19 245.87,67.19 Z M 245.87,67.19" />
    <path id="mQlogowhitelogin-bezier19" stroke="none" fill="rgb(255, 255, 255)" d="M 261.92,72.13 C 261.92,68.7 263.89,66 267.22,66 270.18,66 271.74,67.95 271.95,70.14 L 270.97,70.14 C 270.73,68.39 269.31,66.97 267.2,66.97 264.31,66.97 262.94,69.41 262.94,72.12 262.94,74.9 264.4,77.17 267.21,77.17 269.52,77.17 270.66,75.61 270.95,74.16 L 271.94,74.16 C 271.63,76.22 269.97,78.14 267.19,78.14 263.94,78.16 261.92,75.73 261.92,72.13 Z M 261.92,72.13" />
    <path id="mQlogowhitelogin-bezier20" stroke="none" fill="rgb(255, 255, 255)" d="M 286.8,72.09 C 286.78,69.18 285.14,66.97 282.32,66.97 279.48,66.97 277.85,69.18 277.82,72.09 277.85,74.97 279.48,77.18 282.32,77.18 285.14,77.18 286.82,74.97 286.8,72.09 Z M 276.79,72.09 C 276.79,68.74 278.81,66 282.32,66 285.83,66 287.83,68.75 287.83,72.09 287.83,75.41 285.83,78.15 282.32,78.15 278.8,78.16 276.79,75.41 276.79,72.09 Z M 276.79,72.09" />
    <path id="mQlogowhitelogin-bezier21" stroke="none" fill="rgb(255, 255, 255)" d="M 293.57,66.24 L 294.55,66.24 298.97,72.35 303.28,66.24 304.26,66.24 304.26,77.88 303.28,77.88 303.28,67.82 299.35,73.38 298.51,73.38 294.56,67.84 294.56,77.88 293.58,77.88 293.58,66.24 293.57,66.24 Z M 293.57,66.24" />
    <path id="mQlogowhitelogin-bezier22" stroke="none" fill="rgb(255, 255, 255)" d="M 315.26,71.61 C 316.61,71.61 317.63,70.9 317.63,69.4 317.63,68.02 316.75,67.25 315.16,67.25 L 311.78,67.25 311.78,71.61 315.26,71.61 Z M 310.78,66.28 L 315.22,66.28 C 317.54,66.28 318.71,67.47 318.71,69.4 318.71,71.28 317.44,72.58 315.39,72.58 L 311.78,72.58 311.78,77.88 310.77,77.88 310.77,66.28 310.78,66.28 Z M 310.78,66.28" />
    <path id="mQlogowhitelogin-bezier23" stroke="none" fill="rgb(255, 255, 255)" d="M 329.04,73.05 L 326.99,67.46 326.96,67.46 324.88,73.05 329.04,73.05 Z M 329.4,74.03 L 324.52,74.03 323.09,77.88 322.07,77.88 326.44,66.24 327.56,66.24 331.85,77.88 330.81,77.88 329.4,74.03 Z M 329.4,74.03" />
    <path id="mQlogowhitelogin-bezier24" stroke="none" fill="rgb(255, 255, 255)" d="M 337.14,66.24 L 338.1,66.24 344.99,76.2 344.99,66.24 345.98,66.24 345.98,77.88 344.99,77.88 338.1,67.93 338.1,77.88 337.14,77.88 337.14,66.24 Z M 337.14,66.24" />
    <path id="mQlogowhitelogin-bezier25" stroke="none" fill="rgb(255, 255, 255)" d="M 355.57,73.13 L 351.22,66.27 352.41,66.27 356.12,72.15 359.84,66.27 360.99,66.27 356.6,73.11 356.6,77.87 355.58,77.87 355.58,73.13 355.57,73.13 Z M 355.57,73.13" />
  </symbol>

  <symbol viewBox="-10 0 540 70" id="mQ-logo-white-large">
    <path id="mQWhiteLarge-bezier" stroke="none" fill="rgb(255, 255, 255)" d="M 273.6,2.18 L 277.4,2.18 277.4,46.33 273.6,46.33 273.6,2.18 Z M 273.6,2.18" />
    <path id="mQWhiteLarge-bezier2" stroke="none" fill="rgb(255, 255, 255)" d="M 239.01,22.81 L 209.24,22.81 209.24,2.18 205.44,2.18 205.44,46.34 209.24,46.34 209.24,26.61 239.01,26.61 239.01,46.34 242.81,46.34 242.81,2.18 239.01,2.18 239.01,22.81 Z M 239.01,22.81" />
    <path id="mQWhiteLarge-bezier3" stroke="none" fill="rgb(255, 255, 255)" d="M 344.93,42.54 L 344.55,42.54 314.91,2.18 308.77,2.18 308.77,46.34 312.57,46.34 312.57,5.98 312.99,5.98 342.62,46.34 348.73,46.34 348.73,2.18 344.93,2.18 344.93,42.54 Z M 344.93,42.54" />
    <rect id="mQWhiteLarge-rectangle" stroke="none" fill="rgb(255, 255, 255)" x="378.95" y="2.16" width="34.3" height="3.8" />
    <path id="mQWhiteLarge-bezier4" stroke="none" fill="rgb(255, 255, 255)" d="M 382.77,29.53 C 382.77,27.92 384.09,26.61 385.71,26.61 L 406.69,26.61 406.69,22.81 385.71,22.81 C 381.99,22.81 378.97,25.82 378.97,29.53 L 378.97,46.34 413.27,46.34 413.27,42.54 382.77,42.54 382.77,29.53 Z M 382.77,29.53" />
    <path id="mQWhiteLarge-bezier5" stroke="none" fill="rgb(255, 255, 255)" d="M 23.56,25.52 C 23.5,25.6 23.39,25.65 23.27,25.65 23.15,25.65 23.03,25.6 22.98,25.52 L 6.11,2.23 0,2.23 0,46.33 3.8,46.33 3.8,6.03 4.17,6.03 19.9,27.75 C 20.68,28.83 21.94,29.47 23.27,29.47 24.6,29.47 25.86,28.83 26.64,27.75 L 42.36,6.03 42.73,6.03 42.73,46.33 46.53,46.33 46.53,2.23 40.42,2.23 23.56,25.52 Z M 23.56,25.52" />
    <path id="mQWhiteLarge-bezier6" stroke="none" fill="rgb(255, 255, 255)" d="M 175.75,33.46 C 172.33,39.75 165.75,43.66 158.56,43.66 147.8,43.66 139.04,34.95 139.04,24.25 139.04,13.55 147.8,4.84 158.56,4.84 165.72,4.84 172.3,8.73 175.72,15 L 175.91,15.35 179.24,13.53 179.05,13.18 C 174.96,5.69 167.11,1.04 158.55,1.04 145.69,1.04 135.24,11.45 135.24,24.25 135.24,37.05 145.7,47.46 158.55,47.46 167.13,47.46 174.99,42.79 179.07,35.27 L 179.26,34.92 175.92,33.11 175.75,33.46 Z M 175.75,33.46" />
    <path id="mQWhiteLarge-bezier7" stroke="none" fill="rgb(255, 255, 255)" d="M 92.5,2.18 L 103.77,27.53 84.15,27.53 C 81.51,27.53 79.11,29.08 78.03,31.48 L 71.36,46.34 75.52,46.34 81.49,33.04 C 81.96,32 83,31.33 84.15,31.33 L 105.46,31.33 112.13,46.34 116.29,46.34 96.65,2.18 92.5,2.18 Z M 92.5,2.18" />
    <path id="mQWhiteLarge-bezier8" stroke="none" fill="rgb(255, 71, 19)" d="M 469.65,31.43 L 464.22,24.08 456.54,29.79 462.15,37.35 457.82,37.46 C 450.32,37.46 443.82,30.94 443.82,23.44 443.82,15.03 450.52,9.04 458.02,9.04 466.38,9.04 472.25,15.8 472.25,23.54 472.24,26.21 471.3,29.23 469.65,31.43 Z M 476.75,36.77 C 479.58,32.85 481.18,28.09 481.18,23.17 481.18,7.19 464.91,-5.07 448.07,2.09 443.07,4.21 439.06,8.22 436.94,13.22 429.78,30.07 442.03,46.33 458.02,46.33 L 484.79,46.33 484.79,36.76 476.75,36.76 476.75,36.77 Z M 476.75,36.77" />
    <path id="mQWhiteLarge-bezier9" stroke="none" fill="rgb(255, 255, 255)" d="M 496.38,3.08 L 492.82,3.08 492.82,2.18 500.9,2.18 500.9,3.08 497.34,3.08 497.34,13.22 496.38,13.22 496.38,3.08 Z M 496.38,3.08" />
    <path id="mQWhiteLarge-bezier10" stroke="none" fill="rgb(255, 255, 255)" d="M 514.41,2.18 L 510.33,7.98 506.13,2.18 505.21,2.18 505.21,13.22 506.13,13.22 506.13,3.69 509.88,8.95 510.68,8.95 514.41,3.68 514.41,13.22 515.34,13.22 515.34,2.18 514.41,2.18 Z M 514.41,2.18" />
  </symbol>

  <symbol viewBox="-10 0 540 70" id="mQ-logo-black-large">
    <path id="machineQ-bezier" stroke="none" fill="rgb(28, 37, 44)" d="M 273.6,2.18 L 277.4,2.18 277.4,46.33 273.6,46.33 273.6,2.18 Z M 273.6,2.18" />
    <path id="machineQ-bezier2" stroke="none" fill="rgb(28, 37, 44)" d="M 239.01,22.81 L 209.24,22.81 209.24,2.18 205.44,2.18 205.44,46.34 209.24,46.34 209.24,26.61 239.01,26.61 239.01,46.34 242.81,46.34 242.81,2.18 239.01,2.18 239.01,22.81 Z M 239.01,22.81" />
    <path id="machineQ-bezier3" stroke="none" fill="rgb(28, 37, 44)" d="M 344.93,42.54 L 344.55,42.54 314.91,2.18 308.77,2.18 308.77,46.34 312.57,46.34 312.57,5.98 312.99,5.98 342.62,46.34 348.73,46.34 348.73,2.18 344.93,2.18 344.93,42.54 Z M 344.93,42.54" />
    <rect id="machineQ-rectangle" stroke="none" fill="rgb(28, 37, 44)" x="378.95" y="2.16" width="34.3" height="3.8" />
    <path id="machineQ-bezier4" stroke="none" fill="rgb(28, 37, 44)" d="M 382.77,29.53 C 382.77,27.92 384.09,26.61 385.71,26.61 L 406.69,26.61 406.69,22.81 385.71,22.81 C 381.99,22.81 378.97,25.82 378.97,29.53 L 378.97,46.34 413.27,46.34 413.27,42.54 382.77,42.54 382.77,29.53 Z M 382.77,29.53" />
    <path id="machineQ-bezier5" stroke="none" fill="rgb(28, 37, 44)" d="M 23.56,25.52 C 23.5,25.6 23.39,25.65 23.27,25.65 23.15,25.65 23.03,25.6 22.98,25.52 L 6.11,2.23 0,2.23 0,46.33 3.8,46.33 3.8,6.03 4.17,6.03 19.9,27.75 C 20.68,28.83 21.94,29.47 23.27,29.47 24.6,29.47 25.86,28.83 26.64,27.75 L 42.36,6.03 42.73,6.03 42.73,46.33 46.53,46.33 46.53,2.23 40.42,2.23 23.56,25.52 Z M 23.56,25.52" />
    <path id="machineQ-bezier6" stroke="none" fill="rgb(28, 37, 44)" d="M 175.75,33.46 C 172.33,39.75 165.75,43.66 158.56,43.66 147.8,43.66 139.04,34.95 139.04,24.25 139.04,13.55 147.8,4.84 158.56,4.84 165.72,4.84 172.3,8.73 175.72,15 L 175.91,15.35 179.24,13.53 179.05,13.18 C 174.96,5.69 167.11,1.04 158.55,1.04 145.69,1.04 135.24,11.45 135.24,24.25 135.24,37.05 145.7,47.46 158.55,47.46 167.13,47.46 174.99,42.79 179.07,35.27 L 179.26,34.92 175.92,33.11 175.75,33.46 Z M 175.75,33.46" />
    <path id="machineQ-bezier7" stroke="none" fill="rgb(28, 37, 44)" d="M 92.5,2.18 L 103.77,27.53 84.15,27.53 C 81.51,27.53 79.11,29.08 78.03,31.48 L 71.36,46.34 75.52,46.34 81.49,33.04 C 81.96,32 83,31.33 84.15,31.33 L 105.46,31.33 112.13,46.34 116.29,46.34 96.65,2.18 92.5,2.18 Z M 92.5,2.18" />
    <path id="machineQ-bezier8" stroke="none" fill="rgb(255, 71, 19)" d="M 469.65,31.43 L 464.22,24.08 456.54,29.79 462.15,37.35 457.82,37.46 C 450.32,37.46 443.82,30.94 443.82,23.44 443.82,15.03 450.52,9.04 458.02,9.04 466.38,9.04 472.25,15.8 472.25,23.54 472.24,26.21 471.3,29.23 469.65,31.43 Z M 476.75,36.77 C 479.58,32.85 481.18,28.09 481.18,23.17 481.18,7.19 464.91,-5.07 448.07,2.09 443.07,4.21 439.06,8.22 436.94,13.22 429.78,30.07 442.03,46.33 458.02,46.33 L 484.79,46.33 484.79,36.76 476.75,36.76 476.75,36.77 Z M 476.75,36.77" />
    <path id="machineQ-bezier9" stroke="none" fill="rgb(28, 37, 44)" d="M 496.46,3.08 L 492.9,3.08 492.9,2.18 500.98,2.18 500.98,3.08 497.42,3.08 497.42,13.22 496.46,13.22 496.46,3.08 Z M 496.46,3.08" />
    <path id="machineQ-bezier10" stroke="none" fill="rgb(28, 37, 44)" d="M 514.49,2.18 L 510.41,7.98 506.21,2.18 505.29,2.18 505.29,13.22 506.21,13.22 506.21,3.69 509.96,8.95 510.76,8.95 514.49,3.68 514.49,13.22 515.42,13.22 515.42,2.18 514.49,2.18 Z M 514.49,2.18" />
  </symbol>

  <symbol viewBox="0 0 586 428" id="mQ-robot-maintenance">
    <path id="mQ_Robot_01-bezier" stroke="none" fill="rgb(196, 196, 196)" d="M 431.01,418.49 L 162.04,418.49 162.04,408.99 431.01,408.99 431.01,418.49 Z M 431.01,418.49" />
    <path id="mQ_Robot_01-bezier2" stroke="none" fill="rgb(226, 226, 226)" d="M 124.45,428.18 L 393.42,428.18 393.42,418.68 124.45,418.68 124.45,428.18 Z M 124.45,428.18" />
    <rect id="mQ_Robot_01-rectangle" stroke="none" fill="rgb(249, 144, 38)" x="224.15" y="58.58" width="135.5" height="34.5" rx="5" />
    <path id="mQ_Robot_01-bezier3" stroke="none" fill="rgb(249, 144, 38)" d="M 291.35,26.89 L 289.3,26.89 289.3,3.92 291.35,3.92 291.35,26.89 Z M 291.35,26.89" />
    <path id="mQ_Robot_01-bezier4" stroke="none" fill="rgb(255, 175, 69)" d="M 196.44,174.66 L 194.33,173.37 C 194.33,173.37 190.85,244.21 179.99,257.8 179.99,257.8 171.62,273.47 166.84,255.78 173.38,252.63 178.01,244.8 178.01,235.61 178.01,229.66 176.07,224.27 172.92,220.35 L 173.64,219.83 169.78,213.22 164.03,214.39 C 162.88,214.09 161.68,213.94 160.46,213.94 155.39,213.94 150.83,216.61 147.63,220.86 L 140.26,220.86 144.02,228.07 C 143.31,230.42 142.91,232.95 142.91,235.61 142.91,246.33 149.22,255.21 157.5,256.95 158.03,263.27 160.75,280.19 174.54,277.55 174.54,277.55 195.58,281.31 201.44,186.46 L 196.44,174.66 Z M 196.44,174.66" />
    <path id="mQ_Robot_01-bezier5" stroke="none" fill="rgb(255, 175, 69)" d="M 439.12,219.57 L 431.75,219.57 C 428.55,215.32 423.99,212.65 418.92,212.65 417.7,212.65 416.5,212.81 415.35,213.1 L 409.6,211.94 405.74,218.55 406.46,219.07 C 403.31,222.99 401.37,228.37 401.37,234.33 401.37,244.15 406.67,252.44 413.93,255.1 409.15,272.77 400.79,257.1 400.79,257.1 389.92,243.52 389.05,173.96 389.05,173.96 L 384.34,173.96 379.33,185.77 C 385.19,280.62 406.23,276.86 406.23,276.86 420.82,279.65 423.02,260.55 423.35,255.28 430.89,252.85 436.47,244.4 436.47,234.33 436.47,231.67 436.06,229.14 435.36,226.79 L 439.12,219.57 Z M 439.12,219.57" />
    <rect id="mQ_Robot_01-rectangle2" stroke="none" fill="rgb(249, 144, 38)" x="190.8" y="151.26" width="35.8" height="39.45" rx="15" />
    <rect id="mQ_Robot_01-rectangle3" stroke="none" fill="rgb(249, 144, 38)" x="357.2" y="151.26" width="35.8" height="39.45" rx="15" />
    <rect id="mQ_Robot_01-rectangle4" stroke="none" fill="rgb(255, 175, 69)" x="236.33" y="304.36" width="17.25" height="89.25" />
    <rect id="mQ_Robot_01-rectangle5" stroke="none" fill="rgb(255, 175, 69)" x="332.33" y="304.36" width="17.25" height="89.25" />
    <rect id="mQ_Robot_01-rectangle6" stroke="none" fill="rgb(249, 144, 38)" x="223.18" y="270.81" width="43.45" height="36.15" rx="9.6" />
    <rect id="mQ_Robot_01-rectangle7" stroke="none" fill="rgb(249, 144, 38)" x="316.18" y="270.81" width="43.45" height="36.15" rx="9.6" />
    <circle id="mQ_Robot_01-oval" stroke="none" fill="rgb(247, 109, 33)" cx="290.4" cy="29.68" r="4.6" />
    <path id="mQ_Robot_01-bezier6" stroke="none" fill="rgb(255, 175, 69)" d="M 364.26,138.31 L 348.36,138.31 C 349.16,136.8 349.61,135.08 349.61,133.25 L 349.61,46.98 C 349.61,40.99 344.75,36.13 338.76,36.13 L 307.28,36.13 C 302.98,31.76 297,29.04 290.39,29.04 283.77,29.04 277.8,31.76 273.5,36.13 L 245.05,36.13 C 239.06,36.13 234.2,40.99 234.2,46.98 L 234.2,133.25 C 234.2,135.08 234.66,136.8 235.45,138.31 L 219.55,138.31 C 213.55,138.31 208.69,143.17 208.69,149.17 L 208.69,272.69 C 208.69,278.69 213.55,283.55 219.55,283.55 L 364.26,283.55 C 370.26,283.55 375.12,278.69 375.12,272.69 L 375.12,149.17 C 375.12,143.17 370.26,138.31 364.26,138.31 Z M 364.26,138.31" />
    <circle id="mQ_Robot_01-oval2" stroke="none" fill="rgb(206, 111, 9)" cx="269.2" cy="75.38" r="11.1" />
    <circle id="mQ_Robot_01-oval3" stroke="none" fill="rgb(206, 111, 9)" cx="314.4" cy="75.38" r="11.1" />
    <ellipse id="mQ_Robot_01-oval4" stroke="none" fill="rgb(202, 223, 242)" cx="265.7" cy="69.63" rx="3.5" ry="3.6" />
    <ellipse id="mQ_Robot_01-oval5" stroke="none" fill="rgb(202, 223, 242)" cx="0" cy="-0" rx="3.5" ry="3.6"  transform="translate(317.9, 71.78) rotate(-0.05)" />
    <rect id="mQ_Robot_01-rectangle8" stroke="none" fill="rgb(249, 144, 38)" x="226.6" y="156.28" width="128.8" height="91.4" rx="12.6" />
    <circle id="mQ_Robot_01-oval6" stroke="none" fill="rgb(247, 109, 33)" cx="223.2" cy="267.58" r="5.6" />
    <circle id="mQ_Robot_01-oval7" stroke="none" fill="rgb(247, 109, 33)" cx="362.05" cy="267.58" r="5.6" />
    <rect id="mQ_Robot_01-rectangle9" stroke="none" fill="rgb(247, 109, 33)" x="231.48" y="258.38" width="3.25" height="17.4" />
    <rect id="mQ_Robot_01-rectangle10" stroke="none" fill="rgb(247, 109, 33)" x="238.28" y="258.38" width="3.25" height="17.4" />
    <rect id="mQ_Robot_01-rectangle11" stroke="none" fill="rgb(247, 109, 33)" x="245.12" y="258.38" width="3.25" height="17.4" />
    <rect id="mQ_Robot_01-rectangle12" stroke="none" fill="rgb(247, 109, 33)" x="251.93" y="258.38" width="3.25" height="17.4" />
    <path id="mQ_Robot_01-bezier7" stroke="none" fill="rgb(249, 144, 38)" d="M 238.55,392.16 C 236.38,392.01 224.12,391.42 216.28,396.87 210.42,400.93 213.96,408.93 221.57,408.93 L 248.96,408.93 C 253.47,408.93 257.13,405.87 257.13,402.09 L 257.13,398.96 C 257.13,395.16 253.44,392.09 248.9,392.12 L 239.29,392.18 C 239.03,392.19 238.8,392.18 238.55,392.16 Z M 238.55,392.16" />
    <path id="mQ_Robot_01-bezier8" stroke="none" fill="rgb(249, 144, 38)" d="M 346.25,392.16 C 348.42,392.01 360.67,391.42 368.52,396.87 374.37,400.93 370.83,408.93 363.23,408.93 L 335.84,408.93 C 331.32,408.93 327.66,405.87 327.66,402.09 L 327.66,398.96 C 327.66,395.16 331.36,392.09 335.9,392.12 L 345.51,392.18 C 345.76,392.19 346,392.18 346.25,392.16 Z M 346.25,392.16" />
    <circle id="mQ_Robot_01-oval8" stroke="none" fill="rgb(247, 109, 33)" cx="290.3" cy="3.03" r="3.05" />
    <path id="mQ_Robot_01-bezier9" stroke="none" fill="rgb(206, 111, 9)" d="M 316.16,104.81 C 316.56,111.27 300.39,117.44 291,117.44 281.6,117.44 265.44,111.2 265.83,104.81 265.98,102.37 278.44,103.42 290.99,103.42 303.55,103.42 316.01,102.4 316.16,104.81 Z M 316.16,104.81" />
    <path id="mQ_Robot_01-bezier10" stroke="none" fill="rgb(68, 72, 76)" d="M 271.83,214.58 C 272.6,214.57 273.22,213.93 273.21,213.16 L 273.2,212.38 C 273.19,211.61 272.55,210.99 271.78,211 L 261.02,211.16 260.99,209.37 C 260.97,207.61 259.52,206.21 257.76,206.23 L 233.27,206.59 C 231.51,206.62 230.1,208.06 230.13,209.82 L 230.13,210.15 213.35,214.8 213.38,216.95 182.89,217.4 C 182.89,217.4 157.91,219.15 147.8,231.72 147.8,231.72 126.97,250.55 123.65,284.86 120.34,319.16 157.85,372.95 110.81,389.81 63.75,406.66 0,406.42 0,406.42 L 0.14,415.82 C 0.14,415.82 126.74,418.83 141.3,370.14 141.3,370.14 147.44,343.85 136.22,311.21 131.88,298.6 130.51,285.09 133.02,272 135.16,260.88 140.15,248.62 150.83,238.65 150.83,238.65 164.89,224.51 185.86,224.2 L 213.48,223.79 213.52,225.97 230.43,230.1 230.43,230.57 C 230.46,232.33 231.91,233.74 233.67,233.71 L 258.16,233.35 C 259.92,233.33 261.32,231.88 261.3,230.12 L 261.25,227.05 272.01,226.89 C 272.78,226.88 273.4,226.25 273.39,225.47 L 273.38,224.69 C 273.37,223.92 272.73,223.3 271.96,223.31 L 261.2,223.47 261.07,214.74 271.83,214.58 Z M 271.83,214.58" />
    <rect id="mQ_Robot_01-rectangle13" stroke="none" fill="rgb(249, 144, 38)" x="-3.98" y="-15.03" width="7.95" height="30.05"  transform="translate(173.65, 223.83) rotate(-22.8)" rx="2.6" />
    <rect id="mQ_Robot_01-rectangle14" stroke="none" fill="rgb(249, 144, 38)" x="-3.98" y="-15.03" width="7.95" height="30.05"  transform="translate(145.25, 233.63) rotate(-22.8)" rx="2.6" />
    <rect id="mQ_Robot_01-rectangle15" stroke="none" fill="rgb(249, 144, 38)" x="-3.98" y="-15.03" width="7.95" height="30.05"  transform="translate(155.05, 230.78) rotate(-22.8)" rx="2.6" />
    <rect id="mQ_Robot_01-rectangle16" stroke="none" fill="rgb(249, 144, 38)" x="-3.98" y="-15.03" width="7.95" height="30.05"  transform="translate(164.45, 226.83) rotate(-22.8)" rx="2.6" />
    <path id="mQ_Robot_01-bezier11" stroke="none" fill="rgb(68, 72, 76)" d="M 475.55,393.33 C 428.62,376.16 466.5,322.62 463.42,288.29 460.34,253.97 439.64,235 439.64,235 424.41,222.46 395.53,220.07 395.53,220.07 L 369.49,219.51 369.53,217.33 352.78,212.59 352.79,212.11 C 352.83,210.35 351.44,208.9 349.68,208.86 L 317.23,208.16 C 315.47,208.12 314.02,209.52 313.98,211.28 L 313.53,232.03 C 313.49,233.78 314.89,235.24 316.65,235.28 L 349.09,235.98 C 350.85,236.02 352.31,234.62 352.35,232.86 L 352.35,232.54 369.29,228.5 369.34,226.35 392.22,226.84 C 423.88,229.82 436.56,241.91 436.56,241.91 447.17,251.95 452.08,264.24 454.14,275.38 456.56,288.48 455.1,301.98 450.68,314.56 439.23,347.12 443.67,372.96 443.67,372.96 457.9,421.74 586.04,420.1 586.04,420.1 L 586.24,410.7 C 586.24,410.7 522.49,410.5 475.55,393.33 Z M 475.55,393.33" />
    <rect id="mQ_Robot_01-rectangle17" stroke="none" fill="rgb(249, 144, 38)" x="-3.98" y="-15.03" width="7.95" height="30.05"  transform="translate(407.65, 224.23) rotate(22.8)" rx="2.6" />
    <rect id="mQ_Robot_01-rectangle18" stroke="none" fill="rgb(249, 144, 38)" x="-3.98" y="-15.03" width="7.95" height="30.05"  transform="translate(436.05, 234.03) rotate(22.8)" rx="2.6" />
    <rect id="mQ_Robot_01-rectangle19" stroke="none" fill="rgb(249, 144, 38)" x="-3.98" y="-15.03" width="7.95" height="30.05"  transform="translate(426.25, 231.18) rotate(22.8)" rx="2.6" />
    <rect id="mQ_Robot_01-rectangle20" stroke="none" fill="rgb(249, 144, 38)" x="-3.98" y="-15.03" width="7.95" height="30.05"  transform="translate(416.85, 227.23) rotate(22.8)" rx="2.6" />
    <path id="mQ_Robot_01-bezier12" stroke="none" fill="rgb(255, 175, 69)" d="M 334.66,186.71 L 331.25,182.09 326.42,185.68 329.95,190.43 327.23,190.5 C 322.52,190.5 318.43,186.4 318.43,181.69 318.43,176.41 322.64,172.64 327.35,172.64 332.61,172.64 336.3,176.89 336.3,181.75 336.29,183.43 335.7,185.33 334.66,186.71 Z M 339.13,190.07 C 340.9,187.61 341.91,184.61 341.91,181.52 341.91,171.48 331.68,163.78 321.1,168.27 317.96,169.61 315.44,172.13 314.11,175.27 309.61,185.86 317.31,196.08 327.35,196.08 L 344.18,196.08 344.18,190.06 339.13,190.06 339.13,190.07 Z M 339.13,190.07" />
  </symbol>

  <symbol viewBox="0 0 364 397" id="mQ-robot-error">
    <rect id="mQ_Robot_02-rectangle" stroke="none" fill="rgb(255, 175, 69)" x="-8.68" y="-44.9" width="17.35" height="89.8"  transform="translate(120.75, 307.42) rotate(3.75)" />
    <path id="mQ_Robot_02-bezier" stroke="none" fill="rgb(196, 196, 196)" d="M 335.57,377.26 L 41.15,377.26 41.15,367.2 335.57,367.2 335.57,377.26 Z M 335.57,377.26" />
    <path id="mQ_Robot_02-bezier2" stroke="none" fill="rgb(226, 226, 226)" d="M 0,387.52 L 294.42,387.52 294.42,377.46 0,377.46 0,387.52 Z M 0,387.52" />
    <path id="mQ_Robot_02-bezier3" stroke="none" fill="rgb(249, 144, 38)" d="M 116.97,350.09 C 114.79,349.93 102.46,349.34 94.56,354.82 88.67,358.91 92.24,366.96 99.89,366.96 L 127.45,366.96 C 131.99,366.96 135.67,363.88 135.67,360.08 L 135.67,356.93 C 135.67,353.1 131.95,350.01 127.39,350.04 L 117.72,350.11 C 117.46,350.11 117.22,350.1 116.97,350.09 Z M 116.97,350.09" />
    <rect id="mQ_Robot_02-rectangle2" stroke="none" fill="rgb(249, 144, 38)" x="-56.8" y="-17.35" width="113.6" height="34.7"  transform="translate(242.5, 64.17) rotate(16.05)" rx="5" />
    <path id="mQ_Robot_02-bezier4" stroke="none" fill="rgb(255, 175, 69)" d="M 343.18,229.29 L 335.93,227.74 C 333.67,222.88 329.75,219.29 324.76,218.23 323.56,217.97 322.35,217.87 321.16,217.92 L 315.74,215.56 310.55,221.25 311.15,221.92 C 307.23,225.11 304.18,230 302.93,235.86 300.86,245.53 304.33,254.8 310.92,258.94 302.49,275.33 297.56,258.15 297.56,258.15 289.73,242.49 303.52,173.87 303.52,173.87 L 298.88,172.88 291.47,183.44 C 277.27,278.01 298.76,278.73 298.76,278.73 312.53,284.55 318.71,266.22 320.15,261.1 328.08,260.3 335.35,253.16 337.47,243.25 338.03,240.64 338.16,238.06 337.96,235.6 L 343.18,229.29 Z M 343.18,229.29" />
    <rect id="mQ_Robot_02-rectangle3" stroke="none" fill="rgb(249, 144, 38)" x="-18.03" y="-19.85" width="36.05" height="39.7"  transform="translate(124.65, 129.92) rotate(16.05)" rx="15" />
    <rect id="mQ_Robot_02-rectangle4" stroke="none" fill="rgb(249, 144, 38)" x="-18.03" y="-19.85" width="36.05" height="39.7"  transform="translate(285.6, 176.17) rotate(16.05)" rx="15" />
    <rect id="mQ_Robot_02-rectangle5" stroke="none" fill="rgb(249, 144, 38)" x="-21.88" y="-18.18" width="43.75" height="36.35"  transform="translate(126.95, 253.97) rotate(16.05)" rx="9.6" />
    <rect id="mQ_Robot_02-rectangle6" stroke="none" fill="rgb(249, 144, 38)" x="-21.88" y="-18.18" width="43.75" height="36.35"  transform="translate(216.9, 279.82) rotate(16.05)" rx="9.6" />
    <circle id="mQ_Robot_02-oval" stroke="none" fill="rgb(247, 109, 33)" cx="242.95" cy="15.97" r="4.65" />
    <path id="mQ_Robot_02-bezier5" stroke="none" fill="rgb(255, 175, 69)" d="M 284.19,141.54 L 268.81,137.12 C 270,135.88 270.92,134.35 271.43,132.58 L 295.4,49.15 C 297.07,43.35 293.72,37.3 287.92,35.63 L 257.48,26.89 C 254.54,21.46 249.51,17.17 243.11,15.34 236.71,13.5 230.18,14.46 224.81,17.5 L 197.3,9.6 C 191.5,7.93 185.45,11.28 183.79,17.08 L 159.81,100.51 C 159.31,102.28 159.27,104.07 159.62,105.75 L 144.24,101.33 C 138.44,99.66 132.39,103.01 130.72,108.81 L 96.4,228.27 C 94.73,234.07 98.08,240.12 103.88,241.78 L 243.84,282 C 249.63,283.66 255.68,280.32 257.35,274.52 L 291.67,155.06 C 293.34,149.26 289.99,143.21 284.19,141.54 Z M 284.19,141.54" />
    <circle id="mQ_Robot_02-oval2" stroke="none" fill="rgb(206, 111, 9)" cx="209.75" cy="54.27" r="11.2" />
    <ellipse id="mQ_Robot_02-oval3" stroke="none" fill="rgb(202, 223, 242)" cx="0" cy="-0" rx="3.5" ry="3.6"  transform="translate(207.95, 47.72) rotate(15.8)" />
    <rect id="mQ_Robot_02-rectangle7" stroke="none" fill="rgb(249, 144, 38)" x="-64.8" y="-43.18" width="129.6" height="86.35"  transform="translate(195, 184.97) rotate(16.05)" rx="12.6" />
    <circle id="mQ_Robot_02-oval4" stroke="none" fill="rgb(247, 109, 33)" cx="111.85" cy="227.37" r="5.6" />
    <circle id="mQ_Robot_02-oval5" stroke="none" fill="rgb(247, 109, 33)" cx="246.15" cy="265.97" r="5.6" />
    <rect id="mQ_Robot_02-rectangle8" stroke="none" fill="rgb(247, 109, 33)" x="-1.62" y="-8.75" width="3.25" height="17.5"  transform="translate(121.55, 229.62) rotate(16.05)" />
    <rect id="mQ_Robot_02-rectangle9" stroke="none" fill="rgb(247, 109, 33)" x="-1.62" y="-8.75" width="3.25" height="17.5"  transform="translate(128.15, 231.52) rotate(42.9)" />
    <rect id="mQ_Robot_02-rectangle10" stroke="none" fill="rgb(247, 109, 33)" x="-1.62" y="-8.75" width="3.25" height="17.5"  transform="translate(134.75, 233.42) rotate(-31.05)" />
    <rect id="mQ_Robot_02-rectangle11" stroke="none" fill="rgb(249, 144, 38)" x="-4" y="-15.1" width="8" height="30.2"  transform="translate(309.7, 225.17) rotate(34.85)" rx="2.6" />
    <path id="mQ_Robot_02-bezier6" stroke="none" fill="rgb(206, 111, 9)" d="M 196.56,87.87 C 198.09,80.96 216.23,80.3 224.41,82.65 232.59,85 247.58,95.26 245.23,101.86 244.41,104.17 232.65,99.7 220.51,96.21 208.37,92.72 196.03,90.25 196.56,87.87 Z M 196.56,87.87" />
    <rect id="mQ_Robot_02-rectangle12" stroke="none" fill="rgb(249, 144, 38)" x="-4" y="-15.1" width="8" height="30.2"  transform="translate(335.55, 240.77) rotate(34.85)" rx="2.6" />
    <rect id="mQ_Robot_02-rectangle13" stroke="none" fill="rgb(249, 144, 38)" x="-4" y="-15.1" width="8" height="30.2"  transform="translate(326.5, 235.92) rotate(34.85)" rx="2.6" />
    <rect id="mQ_Robot_02-rectangle14" stroke="none" fill="rgb(249, 144, 38)" x="-4" y="-15.1" width="8" height="30.2"  transform="translate(318.1, 230.07) rotate(34.85)" rx="2.6" />
    <path id="mQ_Robot_02-bezier7" stroke="none" fill="rgb(249, 144, 38)" d="M 242.51,11.36 C 242.51,11.36 250.27,-4.15 260.07,1.08 260.07,1.08 267.91,5.62 263.05,14.57 L 261.1,13.4 C 261.1,13.4 265.43,5.87 257.94,2.63 250.83,-0.44 244.98,11.74 244.98,11.74" />
    <circle id="mQ_Robot_02-oval6" stroke="none" fill="rgb(247, 109, 33)" cx="261.3" cy="15.57" r="3.05" />
    <path id="mQ_Robot_02-bezier8" stroke="none" fill="rgb(255, 175, 69)" d="M 238.14,183.35 L 236.1,177.99 230.49,180.14 232.6,185.67 229.96,185 C 225.42,183.73 222.59,178.68 223.87,174.14 225.29,169.05 230.36,166.56 234.9,167.83 239.96,169.25 242.37,174.34 241.05,179.02 240.59,180.64 239.51,182.3 238.14,183.35 Z M 241.53,187.79 C 243.91,185.9 245.68,183.29 246.52,180.31 249.23,170.64 241.46,160.46 230.06,161.94 226.67,162.38 223.57,164.12 221.44,166.79 214.25,175.77 218.9,187.69 228.58,190.4 L 244.78,194.94 246.4,189.15 241.53,187.78 241.53,187.79 Z M 241.53,187.79" />
  </symbol>

  <symbol viewBox="0 0 25 25" id="menu">
    <path fill="currentColor" d="M 3,12.75 C 2.59,12.75 2.25,12.41 2.25,12 2.25,11.59 2.59,11.25 3,11.25 L 21,11.25 C 21.41,11.25 21.75,11.59 21.75,12 21.75,12.41 21.41,12.75 21,12.75 L 3,12.75 Z M 3,4.75 C 2.59,4.75 2.25,4.41 2.25,4 2.25,3.59 2.59,3.25 3,3.25 L 21,3.25 C 21.41,3.25 21.75,3.59 21.75,4 21.75,4.41 21.41,4.75 21,4.75 L 3,4.75 Z M 3,20.75 C 2.59,20.75 2.25,20.41 2.25,20 2.25,19.59 2.59,19.25 3,19.25 L 21,19.25 C 21.41,19.25 21.75,19.59 21.75,20 21.75,20.41 21.41,20.75 21,20.75 L 3,20.75 Z M 3,20.75" />
  </symbol>

  <symbol viewBox="0 0 25 25" id="home">
    <path fill="currentColor" d="M 15.37,22.16 C 14.96,22.16 14.62,21.83 14.62,21.41 L 14.62,18.48 C 14.62,16.93 13.44,15.69 12,15.69 10.56,15.69 9.38,16.93 9.38,18.48 L 9.38,21.41 C 9.38,21.83 9.04,22.16 8.63,22.16 L 3.56,22.16 C 3.15,22.16 2.81,21.83 2.81,21.41 L 2.81,10.82 C 2.81,10.62 2.89,10.43 3.04,10.29 L 11.48,2.05 C 11.77,1.77 12.23,1.77 12.52,2.05 L 20.96,10.29 C 21.11,10.43 21.19,10.62 21.19,10.82 L 21.19,21.41 C 21.19,21.83 20.85,22.16 20.44,22.16 L 15.37,22.16 Z M 19.69,20.66 L 19.69,11.14 12,3.64 4.31,11.14 4.31,20.66 7.88,20.66 7.88,18.48 C 7.88,16.12 9.72,14.19 12,14.19 14.29,14.19 16.12,16.11 16.12,18.48 L 16.12,20.66 19.69,20.66 Z M 19.69,20.66" />
  </symbol>

  <symbol viewBox="0 0 25 25" id="home-solid">
    <path fill="currentColor" d="M 15.56,22.32 C 15.15,22.32 14.81,21.99 14.81,21.57 L 14.81,18.64 C 14.81,17.09 13.63,15.85 12.19,15.85 10.75,15.85 9.56,17.09 9.56,18.64 L 9.56,21.57 C 9.56,21.99 9.23,22.32 8.81,22.32 L 3.75,22.32 C 3.34,22.32 3,21.99 3,21.57 L 3,10.99 C 3,10.78 3.08,10.59 3.23,10.45 L 11.66,2.21 C 11.95,1.93 12.42,1.93 12.71,2.21 L 21.15,10.45 C 21.29,10.59 21.38,10.78 21.38,10.99 L 21.38,21.57 C 21.38,21.99 21.04,22.32 20.62,22.32 L 15.56,22.32 Z M 15.56,22.32" />
  </symbol>

  <symbol viewBox="0 0 25 25" id="location">
    <path fill="currentColor" d="M 12.53,21.53 C 12.24,21.82 11.76,21.82 11.47,21.53 11.41,21.47 11.3,21.36 11.16,21.21 10.91,20.95 10.64,20.66 10.35,20.34 9.52,19.42 8.69,18.44 7.91,17.44 7.16,16.48 6.51,15.55 5.96,14.67 4.86,12.88 4.25,11.33 4.25,10.05 4.25,5.74 7.72,2.25 12,2.25 16.28,2.25 19.75,5.74 19.75,10.05 19.75,11.33 19.14,12.88 18.04,14.67 17.49,15.55 16.84,16.48 16.09,17.44 15.31,18.44 14.48,19.42 13.65,20.34 13.36,20.66 13.09,20.95 12.84,21.21 12.7,21.36 12.59,21.47 12.53,21.53 Z M 12.54,19.33 C 13.35,18.44 14.15,17.49 14.91,16.52 15.62,15.6 16.25,14.72 16.76,13.88 17.73,12.31 18.25,10.99 18.25,10.05 18.25,6.57 15.45,3.75 12,3.75 8.55,3.75 5.75,6.57 5.75,10.05 5.75,10.99 6.27,12.31 7.24,13.88 7.75,14.72 8.38,15.6 9.09,16.52 9.85,17.49 10.65,18.44 11.46,19.33 11.65,19.54 11.83,19.74 12,19.92 12.17,19.74 12.35,19.54 12.54,19.33 Z M 12,13.25 C 10.21,13.25 8.75,11.79 8.75,10 8.75,8.21 10.21,6.75 12,6.75 13.79,6.75 15.25,8.21 15.25,10 15.25,11.79 13.79,13.25 12,13.25 Z M 12,11.75 C 12.97,11.75 13.75,10.97 13.75,10 13.75,9.03 12.97,8.25 12,8.25 11.03,8.25 10.25,9.03 10.25,10 10.25,10.97 11.03,11.75 12,11.75 Z M 12,11.75" />
  </symbol>

  <symbol viewBox="0 0 25 25" id="location-solid">
    <path fill="currentColor" d="M 12.53,21.53 C 12.24,21.82 11.76,21.82 11.47,21.53 11.41,21.47 11.3,21.36 11.16,21.21 10.91,20.95 10.64,20.66 10.35,20.34 9.52,19.42 8.69,18.44 7.91,17.44 7.16,16.48 6.51,15.55 5.96,14.67 4.86,12.88 4.25,11.33 4.25,10.05 4.25,5.74 7.72,2.25 12,2.25 16.28,2.25 19.75,5.74 19.75,10.05 19.75,11.33 19.14,12.88 18.04,14.67 17.49,15.55 16.84,16.48 16.09,17.44 15.31,18.44 14.48,19.42 13.65,20.34 13.36,20.66 13.09,20.95 12.84,21.21 12.7,21.36 12.59,21.47 12.53,21.53 Z M 12,13.25 C 13.79,13.25 15.25,11.79 15.25,10 15.25,8.21 13.79,6.75 12,6.75 10.21,6.75 8.75,8.21 8.75,10 8.75,11.79 10.21,13.25 12,13.25 Z M 12,13.25" />
  </symbol>

  <symbol viewBox="0 0 25 25" id="device">
    <path fill="currentColor" d="M 6.5,6.5 L 6.5,17.5 17.5,17.5 17.5,6.5 6.5,6.5 Z M 19,17 L 19,18 C 19,18.55 18.55,19 18,19 L 17,19 17,22 15,22 15,19 13,19 13,22 11,22 11,19 9,19 9,22 7,22 7,19 6,19 C 5.45,19 5,18.55 5,18 L 5,17 2,17 2,15 5,15 5,13 2,13 2,11 5,11 5,9 2,9 2,7 5,7 5,6 C 5,5.45 5.45,5 6,5 L 7,5 7,2 9,2 9,5 11,5 11,2 13,2 13,5 15,5 15,2 17,2 17,5 18,5 C 18.55,5 19,5.45 19,6 L 19,7 22,7 22,9 19,9 19,11 22,11 22,13 19,13 19,15 22,15 22,17 19,17 Z M 8,8 L 8,16 16,16 16,8 8,8 Z M 8,8" />
  </symbol>

  <symbol viewBox="0 0 25 25" id="device-solid">
    <path fill="currentColor" d="M 19,17 L 19,18 C 19,18.55 18.55,19 18,19 L 17,19 17,22 15,22 15,19 13,19 13,22 11,22 11,19 9,19 9,22 7,22 7,19 6,19 C 5.45,19 5,18.55 5,18 L 5,17 2,17 2,15 5,15 5,13 2,13 2,11 5,11 5,9 2,9 2,7 5,7 5,6 C 5,5.45 5.45,5 6,5 L 7,5 7,2 9,2 9,5 11,5 11,2 13,2 13,5 15,5 15,2 17,2 17,5 18,5 C 18.55,5 19,5.45 19,6 L 19,7 22,7 22,9 19,9 19,11 22,11 22,13 19,13 19,15 22,15 22,17 19,17 Z M 9,9 L 9,15 15,15 15,9 9,9 Z M 9,9" />
  </symbol>

  <symbol viewBox="0 0 25 25" id="gateway">
    <path fill="currentColor" d="M 16,20 L 20,20 18,16 6,16 4,20 8,20 16,20 Z M 11,15 L 11,10 C 11,9.45 11.45,9 12,9 12.55,9 13,9.45 13,10 L 13,15 19.01,15 19.01,15.01 22,21 20.01,21 20.01,22 17.01,22 17.01,21 7.01,21 7.01,22 4.01,22 4.01,21 2,21 5,15 5.01,15.01 5.01,15 11,15 Z M 21.79,6.35 C 22.07,6.65 22.07,7.13 21.79,7.43 21.51,7.73 21.05,7.73 20.77,7.43 15.93,2.24 8.07,2.24 3.22,7.43 2.94,7.73 2.49,7.73 2.21,7.43 1.93,7.13 1.93,6.65 2.21,6.35 7.62,0.55 16.38,0.55 21.79,6.35 Z M 18.04,8.85 C 18.32,9.15 18.32,9.63 18.04,9.93 17.76,10.23 17.3,10.23 17.02,9.93 14.04,6.74 9.21,6.74 6.22,9.93 5.94,10.23 5.49,10.23 5.21,9.93 4.93,9.63 4.93,9.15 5.21,8.85 8.75,5.05 14.49,5.05 18.04,8.85 Z M 18.04,8.85" />
  </symbol>

  <symbol viewBox="0 0 25 25" id="gateway-solid">
    <path fill="currentColor" d="M 11,15 L 11,10 C 11,9.45 11.45,9 12,9 12.55,9 13,9.45 13,10 L 13,15 19.01,15 19.01,15.01 22,21 20.01,21 20.01,22 17.01,22 17.01,21 7.01,21 7.01,22 4.01,22 4.01,21 2,21 5,15 5.01,15.01 5.01,15 11,15 Z M 18.04,8.85 C 18.32,9.15 18.32,9.63 18.04,9.93 17.76,10.23 17.3,10.23 17.02,9.93 14.04,6.74 9.21,6.74 6.22,9.93 5.94,10.23 5.49,10.23 5.21,9.93 4.93,9.63 4.93,9.15 5.21,8.85 8.75,5.05 14.49,5.05 18.04,8.85 Z M 21.79,6.35 C 22.07,6.65 22.07,7.13 21.79,7.43 21.51,7.73 21.05,7.73 20.77,7.43 15.93,2.24 8.07,2.24 3.22,7.43 2.94,7.73 2.49,7.73 2.21,7.43 1.93,7.13 1.93,6.65 2.21,6.35 7.62,0.55 16.38,0.55 21.79,6.35 Z M 21.79,6.35" />
  </symbol>

  <symbol viewBox="0 0 25 25" id="flow-tree">
    <path fill="currentColor" d="M 1.75,12 C 1.75,11.82 1.82,11.64 1.99,11.47 L 6.51,6.95 C 7.22,6.24 8.28,7.3 7.57,8.01 L 4.33,11.25 14.77,11.25 C 15.19,11.25 15.52,11.59 15.52,12 15.52,12.41 15.19,12.75 14.77,12.75 L 4.32,12.75 7.57,16 C 8.28,16.71 7.22,17.77 6.51,17.06 L 1.99,12.54 C 1.82,12.37 1.75,12.18 1.75,12 Z M 5.85,5.85 C 5.56,6.14 5.08,6.14 4.79,5.85 4.5,5.56 4.5,5.08 4.79,4.79 8.77,0.81 15.23,0.81 19.21,4.79 23.19,8.77 23.19,15.23 19.21,19.21 15.23,23.19 8.77,23.19 4.79,19.21 4.5,18.92 4.5,18.44 4.79,18.15 5.08,17.86 5.56,17.86 5.85,18.15 9.25,21.54 14.75,21.54 18.15,18.15 21.54,14.75 21.54,9.25 18.15,5.85 14.75,2.46 9.25,2.46 5.85,5.85 Z M 5.85,5.85" />
  </symbol>

  <symbol viewBox="0 0 25 25" id="flow-tree-solid">
    <path fill="currentColor" d="M 1.75,12 C 1.75,11.82 1.82,11.64 1.99,11.47 L 6.51,6.95 C 7.22,6.24 8.28,7.3 7.57,8.01 L 4.33,11.25 14.77,11.25 C 15.19,11.25 15.52,11.59 15.52,12 15.52,12.41 15.19,12.75 14.77,12.75 L 4.32,12.75 7.57,16 C 8.28,16.71 7.22,17.77 6.51,17.06 L 1.99,12.54 C 1.82,12.37 1.75,12.18 1.75,12 Z M 5.85,5.85 C 5.56,6.14 5.08,6.14 4.79,5.85 4.5,5.56 4.5,5.08 4.79,4.79 8.77,0.81 15.23,0.81 19.21,4.79 23.19,8.77 23.19,15.23 19.21,19.21 15.23,23.19 8.77,23.19 4.79,19.21 4.5,18.92 4.5,18.44 4.79,18.15 5.08,17.86 5.56,17.86 5.85,18.15 9.25,21.54 14.75,21.54 18.15,18.15 21.54,14.75 21.54,9.25 18.15,5.85 14.75,2.46 9.25,2.46 5.85,5.85 Z M 5.85,5.85" />
  </symbol>

  <symbol viewBox="0 0 25 25" id="antenna">
    <path fill="currentColor" d="M 13.32,17.22 L 9.04,7.79 6.92,12.49 C 6.84,12.66 6.66,12.78 6.46,12.78 L 3.79,12.78 C 3.38,12.78 3.04,12.44 3.04,12.03 3.04,11.62 3.38,11.28 3.79,11.28 L 5.69,11.28 C 5.77,11.28 5.84,11.23 5.87,11.16 L 7.81,6.87 C 7.64,6.62 7.53,6.32 7.53,6 7.53,5.17 8.21,4.5 9.03,4.5 9.86,4.5 10.53,5.17 10.53,6 10.53,6.32 10.43,6.62 10.26,6.86 L 14.63,16.46 17.49,11.48 C 17.56,11.36 17.69,11.28 17.84,11.28 L 20.65,11.28 C 21.07,11.28 21.4,11.62 21.4,12.03 21.4,12.44 21.07,12.78 20.65,12.78 L 18.71,12.78 C 18.56,12.78 18.43,12.86 18.36,12.98 L 15.9,17.25 C 16.03,17.47 16.1,17.73 16.1,18 16.1,18.83 15.43,19.5 14.6,19.5 13.77,19.5 13.1,18.83 13.1,18 13.1,17.71 13.18,17.44 13.32,17.22 Z M 13.32,17.22" />
  </symbol>

  <symbol viewBox="0 0 25 25" id="antenna-solid">
    <path fill="currentColor" d="M 13.32,17.22 L 9.04,7.79 6.92,12.49 C 6.84,12.66 6.66,12.78 6.46,12.78 L 3.79,12.78 C 3.38,12.78 3.04,12.44 3.04,12.03 3.04,11.62 3.38,11.28 3.79,11.28 L 5.69,11.28 C 5.77,11.28 5.84,11.23 5.87,11.16 L 7.81,6.87 C 7.64,6.62 7.53,6.32 7.53,6 7.53,5.17 8.21,4.5 9.03,4.5 9.86,4.5 10.53,5.17 10.53,6 10.53,6.32 10.43,6.62 10.26,6.86 L 14.63,16.46 17.49,11.48 C 17.56,11.36 17.69,11.28 17.84,11.28 L 20.65,11.28 C 21.07,11.28 21.4,11.62 21.4,12.03 21.4,12.44 21.07,12.78 20.65,12.78 L 18.71,12.78 C 18.56,12.78 18.43,12.86 18.36,12.98 L 15.9,17.25 C 16.03,17.47 16.1,17.73 16.1,18 16.1,18.83 15.43,19.5 14.6,19.5 13.77,19.5 13.1,18.83 13.1,18 13.1,17.71 13.18,17.44 13.32,17.22 Z M 13.32,17.22" />
  </symbol>

  <symbol viewBox="0 0 25 25" id="people">
    <path fill="currentColor" d="M 20.25,20.69 L 20.25,20.31 C 20.25,17.93 18.32,16 15.94,16 L 8.06,16 C 5.68,16 3.75,17.93 3.75,20.31 L 3.75,20.69 20.25,20.69 Z M 2.25,21.44 L 2.25,20.31 C 2.25,17.1 4.85,14.5 8.06,14.5 L 15.94,14.5 C 19.15,14.5 21.75,17.11 21.75,20.31 L 21.75,21.44 C 21.75,21.85 21.41,22.19 21,22.19 L 3,22.19 C 2.59,22.19 2.25,21.85 2.25,21.44 Z M 12,12.62 C 9.41,12.62 7.31,10.53 7.31,7.94 7.31,5.35 9.41,3.25 12,3.25 14.59,3.25 16.69,5.35 16.69,7.94 16.69,10.53 14.59,12.62 12,12.62 Z M 12,11.12 C 13.76,11.12 15.19,9.7 15.19,7.94 15.19,6.18 13.76,4.75 12,4.75 10.24,4.75 8.81,6.18 8.81,7.94 8.81,9.7 10.24,11.12 12,11.12 Z M 12,11.12" />
  </symbol>

  <symbol viewBox="0 0 25 25" id="people-solid">
    <path fill="currentColor" d="M 3,21.44 L 3,20.31 C 3,17.52 5.26,15.25 8.06,15.25 L 15.94,15.25 C 18.73,15.25 21,17.52 21,20.31 L 21,21.44 3,21.44 Z M 12,11.88 C 9.83,11.88 8.06,10.11 8.06,7.94 8.06,5.76 9.83,4 12,4 14.17,4 15.94,5.76 15.94,7.94 15.94,10.11 14.17,11.88 12,11.88 Z M 12,11.88" />
  </symbol>

  <symbol viewBox="0 0 25 25" id="notifications">
    <path fill="currentColor" d="M 9.09,20.04 L 10.55,20.04 C 10.55,21.01 11.36,21.79 12.36,21.79 13.37,21.79 14.18,21.01 14.18,20.04 L 15.64,20.04 C 15.64,21.78 14.17,23.19 12.36,23.19 10.56,23.19 9.09,21.78 9.09,20.04 Z M 11,3.03 L 11,2.5 C 11,1.67 11.67,1 12.5,1 13.33,1 14,1.67 14,2.5 L 14,3.09 C 17.23,3.8 19.64,6.59 19.64,9.92 L 19.64,15.16 C 20.87,15.33 21.82,16.35 21.82,17.58 L 21.82,17.94 C 21.82,18.71 21.17,19.34 20.36,19.34 L 4.36,19.34 C 3.56,19.34 2.91,18.71 2.91,17.94 L 2.91,17.58 C 2.91,16.35 3.86,15.33 5.09,15.16 L 5.09,9.92 C 5.09,6.5 7.63,3.65 11,3.03 Z M 20.36,17.58 C 20.36,17 19.88,16.53 19.27,16.53 18.67,16.53 18.18,16.06 18.18,15.48 L 18.18,9.92 C 18.18,6.82 15.58,4.31 12.36,4.31 9.15,4.31 6.55,6.82 6.55,9.92 L 6.55,15.48 C 6.55,16.06 6.06,16.53 5.46,16.53 4.85,16.53 4.36,17 4.36,17.58 L 4.36,17.94 20.36,17.94 20.36,17.58 Z M 20.36,17.58" />
  </symbol>

  <symbol viewBox="0 0 25 25" id="notifications-solid">
    <path fill="currentColor" d="M 9.09,20.04 L 10.55,20.04 C 10.55,21.01 11.36,21.79 12.36,21.79 13.37,21.79 14.18,21.01 14.18,20.04 L 15.64,20.04 C 15.64,21.78 14.17,23.19 12.36,23.19 10.56,23.19 9.09,21.78 9.09,20.04 Z M 11,3.03 L 11,2.5 C 11,1.67 11.67,1 12.5,1 13.33,1 14,1.67 14,2.5 L 14,3.09 C 17.23,3.8 19.64,6.59 19.64,9.92 L 19.64,15.16 C 20.87,15.33 21.82,16.35 21.82,17.58 L 21.82,17.94 C 21.82,18.71 21.17,19.34 20.36,19.34 L 4.36,19.34 C 3.56,19.34 2.91,18.71 2.91,17.94 L 2.91,17.58 C 2.91,16.35 3.86,15.33 5.09,15.16 L 5.09,9.92 C 5.09,6.5 7.63,3.65 11,3.03 Z M 11,3.03" />
  </symbol>

  <symbol viewBox="0 0 25 25" id="config">
    <path fill="currentColor" d="M 10.05,5.51 C 9.98,5.73 9.81,5.89 9.6,5.97 8.95,6.21 8.35,6.54 7.81,6.95 7.64,7.08 7.42,7.13 7.21,7.09 L 5.26,6.72 3.92,9.03 5.16,10.46 C 5.3,10.63 5.37,10.85 5.33,11.07 5.29,11.37 5.26,11.68 5.26,12 5.26,12.32 5.29,12.63 5.33,12.93 5.37,13.15 5.3,13.37 5.16,13.54 L 3.92,14.97 5.26,17.28 7.21,16.91 C 7.42,16.87 7.64,16.92 7.81,17.05 8.35,17.46 8.95,17.79 9.6,18.03 9.81,18.11 9.98,18.27 10.05,18.49 L 10.66,20.25 13.34,20.25 13.95,18.49 C 14.02,18.27 14.19,18.11 14.4,18.03 15.05,17.79 15.65,17.46 16.19,17.05 16.36,16.92 16.58,16.87 16.79,16.91 L 18.74,17.28 20.08,14.97 18.84,13.54 C 18.7,13.37 18.63,13.15 18.67,12.93 18.71,12.63 18.74,12.32 18.74,12 18.74,11.68 18.71,11.37 18.67,11.07 18.63,10.85 18.7,10.63 18.84,10.46 L 20.08,9.03 18.74,6.72 16.79,7.09 C 16.58,7.13 16.36,7.08 16.19,6.95 15.65,6.54 15.05,6.21 14.4,5.97 14.19,5.89 14.02,5.73 13.95,5.51 L 13.34,3.75 10.66,3.75 10.05,5.51 Z M 9.42,2.75 C 9.52,2.45 9.81,2.25 10.13,2.25 L 13.87,2.25 C 14.19,2.25 14.48,2.45 14.58,2.75 L 15.25,4.69 C 15.81,4.92 16.34,5.21 16.83,5.56 L 18.98,5.14 C 19.29,5.08 19.61,5.23 19.77,5.5 L 21.64,8.75 C 21.8,9.02 21.77,9.37 21.56,9.61 L 20.2,11.19 C 20.22,11.46 20.24,11.73 20.24,12 20.24,12.27 20.22,12.54 20.2,12.81 L 21.56,14.39 C 21.77,14.63 21.8,14.98 21.64,15.25 L 19.77,18.5 C 19.61,18.77 19.29,18.92 18.98,18.86 L 16.83,18.44 C 16.34,18.79 15.81,19.08 15.25,19.31 L 14.58,21.25 C 14.48,21.55 14.19,21.75 13.87,21.75 L 10.13,21.75 C 9.81,21.75 9.52,21.55 9.42,21.25 L 8.75,19.31 C 8.19,19.08 7.66,18.79 7.17,18.44 L 5.02,18.86 C 4.71,18.92 4.39,18.77 4.23,18.5 L 2.36,15.25 C 2.2,14.98 2.23,14.63 2.44,14.39 L 3.8,12.81 C 3.78,12.54 3.76,12.27 3.76,12 3.76,11.73 3.78,11.46 3.8,11.19 L 2.44,9.61 C 2.23,9.37 2.2,9.02 2.36,8.75 L 4.23,5.5 C 4.39,5.23 4.71,5.08 5.02,5.14 L 7.17,5.56 C 7.66,5.21 8.19,4.92 8.75,4.69 L 9.42,2.75 Z M 12,15.56 C 13.97,15.56 15.56,13.97 15.56,12 15.56,10.03 13.97,8.44 12,8.44 10.03,8.44 8.44,10.03 8.44,12 8.44,13.97 10.03,15.56 12,15.56 Z M 12,14.06 C 10.86,14.06 9.94,13.14 9.94,12 9.94,10.86 10.86,9.94 12,9.94 13.14,9.94 14.06,10.86 14.06,12 14.06,13.14 13.14,14.06 12,14.06 Z M 12,14.06" />
  </symbol>

  <symbol viewBox="0 0 25 25" id="config-solid">
    <path fill="currentColor" d="M 9.42,2.75 C 9.52,2.45 9.81,2.25 10.13,2.25 L 13.87,2.25 C 14.19,2.25 14.48,2.45 14.58,2.75 L 15.25,4.69 C 15.81,4.92 16.34,5.21 16.83,5.56 L 18.98,5.14 C 19.29,5.08 19.61,5.23 19.77,5.5 L 21.64,8.75 C 21.8,9.02 21.77,9.37 21.56,9.61 L 20.2,11.19 C 20.22,11.46 20.24,11.73 20.24,12 20.24,12.27 20.22,12.54 20.2,12.81 L 21.56,14.39 C 21.77,14.63 21.8,14.98 21.64,15.25 L 19.77,18.5 C 19.61,18.77 19.29,18.92 18.98,18.86 L 16.83,18.44 C 16.34,18.79 15.81,19.08 15.25,19.31 L 14.58,21.25 C 14.48,21.55 14.19,21.75 13.87,21.75 L 10.13,21.75 C 9.81,21.75 9.52,21.55 9.42,21.25 L 8.75,19.31 C 8.19,19.08 7.66,18.79 7.17,18.44 L 5.02,18.86 C 4.71,18.92 4.39,18.77 4.23,18.5 L 2.36,15.25 C 2.2,14.98 2.23,14.63 2.44,14.39 L 3.8,12.81 C 3.78,12.54 3.76,12.27 3.76,12 3.76,11.73 3.78,11.46 3.8,11.19 L 2.44,9.61 C 2.23,9.37 2.2,9.02 2.36,8.75 L 4.23,5.5 C 4.39,5.23 4.71,5.08 5.02,5.14 L 7.17,5.56 C 7.66,5.21 8.19,4.92 8.75,4.69 L 9.42,2.75 Z M 12,15.56 C 13.97,15.56 15.56,13.97 15.56,12 15.56,10.03 13.97,8.44 12,8.44 10.03,8.44 8.44,10.03 8.44,12 8.44,13.97 10.03,15.56 12,15.56 Z M 12,15.56" />
  </symbol>

  <symbol viewBox="0 0 25 25" id="data">
    <path fill="currentColor" d="M 12,22 C 13.5,22 21,21.85 21,18.97 L 21,5.12 C 21,3.07 16.47,2 12,2 7.53,2 3,3.07 3,5.12 L 3,18.97 C 3,21.85 10.5,22 12,22 Z M 19.71,9.5 C 19.71,10.39 16.55,11.38 12,11.38 7.45,11.38 4.29,10.39 4.29,9.5 L 4.29,6.82 C 5.95,7.75 8.98,8.25 12,8.25 15.02,8.25 18.05,7.76 19.71,6.82 L 19.71,9.5 Z M 12,12.62 C 13.12,12.62 17.51,12.54 19.71,11.29 L 19.71,14.5 C 19.71,15.39 16.55,16.38 12,16.38 7.45,16.38 4.29,15.39 4.29,14.5 L 4.29,11.29 C 6.49,12.54 10.89,12.62 12,12.62 Z M 12,20.75 C 7.03,20.75 4.29,19.7 4.29,18.97 L 4.29,16.29 C 6.49,17.54 10.89,17.62 12,17.62 13.12,17.62 17.51,17.54 19.71,16.29 L 19.71,18.97 C 19.71,19.7 16.97,20.75 12,20.75 Z M 12,3.25 C 16.79,3.25 19.71,4.46 19.71,5.12 19.71,5.79 16.79,7 12,7 7.21,7 4.29,5.79 4.29,5.12 4.29,4.46 7.21,3.25 12,3.25 Z M 12,3.25" />
  </symbol>

  <symbol viewBox="0 0 25 25" id="view">
    <path fill="currentColor" d="M 12,22 C 13.5,22 21,21.85 21,18.97 L 21,5.12 C 21,3.07 16.47,2 12,2 7.53,2 3,3.07 3,5.12 L 3,18.97 C 3,21.85 10.5,22 12,22 Z M 19.71,9.5 C 19.71,10.39 16.55,11.38 12,11.38 7.45,11.38 4.29,10.39 4.29,9.5 L 4.29,6.82 C 5.95,7.75 8.98,8.25 12,8.25 15.02,8.25 18.05,7.76 19.71,6.82 L 19.71,9.5 Z M 12,12.62 C 13.12,12.62 17.51,12.54 19.71,11.29 L 19.71,14.5 C 19.71,15.39 16.55,16.38 12,16.38 7.45,16.38 4.29,15.39 4.29,14.5 L 4.29,11.29 C 6.49,12.54 10.89,12.62 12,12.62 Z M 12,20.75 C 7.03,20.75 4.29,19.7 4.29,18.97 L 4.29,16.29 C 6.49,17.54 10.89,17.62 12,17.62 13.12,17.62 17.51,17.54 19.71,16.29 L 19.71,18.97 C 19.71,19.7 16.97,20.75 12,20.75 Z M 12,3.25 C 16.79,3.25 19.71,4.46 19.71,5.12 19.71,5.79 16.79,7 12,7 7.21,7 4.29,5.79 4.29,5.12 4.29,4.46 7.21,3.25 12,3.25 Z M 12,3.25" />
  </symbol>

  <symbol viewBox="0 0 25 25" id="stats">
    <path fill="currentColor" d="M 15.45,2 C 15.11,2.04 14.86,2.37 14.86,2.75 L 14.86,20.26 13.99,20.26 13.99,8.5 C 13.99,8.09 13.7,7.75 13.34,7.75 L 10.3,7.75 C 10.27,7.75 10.25,7.75 10.23,7.75 9.89,7.79 9.64,8.12 9.64,8.5 L 9.64,20.26 8.77,20.26 8.77,14 C 8.77,13.59 8.48,13.25 8.12,13.25 L 5.08,13.25 C 5.06,13.25 5.03,13.25 5.01,13.25 4.68,13.29 4.42,13.62 4.43,14 L 4.43,20.26 2.69,20.26 C 2.66,20.25 2.64,20.25 2.62,20.26 2.39,20.27 2.18,20.43 2.07,20.66 1.97,20.9 1.98,21.19 2.11,21.41 2.23,21.64 2.45,21.77 2.69,21.76 L 20.95,21.76 C 21.18,21.76 21.4,21.62 21.52,21.38 21.64,21.15 21.64,20.86 21.52,20.63 21.4,20.39 21.18,20.25 20.95,20.26 L 16.17,20.26 16.17,3.5 17.9,3.5 17.9,18.5 C 17.9,18.78 18.02,19.03 18.23,19.16 18.43,19.3 18.68,19.3 18.89,19.16 19.09,19.03 19.21,18.78 19.21,18.5 L 19.21,2.75 C 19.21,2.34 18.92,2 18.56,2 L 15.51,2 C 15.49,2 15.47,2 15.45,2 Z M 10.95,9.25 L 12.69,9.25 12.69,20.26 10.95,20.26 10.95,9.25 Z M 5.73,14.75 L 7.47,14.75 7.47,20.26 5.73,20.26 5.73,14.75 Z M 5.73,14.75" />
  </symbol>

  <symbol viewBox="0 0 25 25" id="stats-solid">
    <path fill="currentColor" d="M 21.52,20.29 C 21.4,20.06 21.18,19.92 20.95,19.93 L 19.21,19.93 19.21,18.22 19.21,3.35 19.21,2.73 C 19.21,2.33 18.92,2 18.56,2 L 15.51,2 C 15.49,2 15.47,2 15.45,2 15.11,2.04 14.86,2.36 14.86,2.73 L 14.86,19.93 13.99,19.93 13.99,7.39 C 13.99,6.99 13.7,6.66 13.34,6.66 L 10.3,6.66 C 10.27,6.66 10.25,6.66 10.23,6.66 9.89,6.7 9.64,7.02 9.64,7.39 L 9.64,19.93 8.77,19.93 8.77,11.83 C 8.77,11.43 8.48,11.1 8.12,11.1 L 5.08,11.1 C 5.06,11.1 5.03,11.1 5.01,11.1 4.68,11.14 4.42,11.45 4.43,11.83 L 4.43,19.93 2.69,19.93 C 2.66,19.93 2.64,19.93 2.62,19.93 2.39,19.94 2.18,20.09 2.07,20.33 1.96,20.56 1.98,20.84 2.11,21.06 2.23,21.28 2.45,21.4 2.69,21.39 L 20.95,21.39 C 21.18,21.39 21.4,21.26 21.52,21.03 21.64,20.8 21.64,20.52 21.52,20.29 Z M 21.52,20.29" />
  </symbol>

  <symbol viewBox="0 0 25 25" id="search">
    <path fill="currentColor" d="M 15.51,16.56 C 14.08,17.75 12.24,18.47 10.24,18.47 5.69,18.47 2,14.78 2,10.24 2,5.69 5.69,2 10.24,2 14.78,2 18.47,5.69 18.47,10.24 18.47,12.24 17.75,14.08 16.56,15.51 16.59,15.53 16.62,15.56 16.65,15.59 L 21.35,20.29 C 21.65,20.59 21.65,21.06 21.35,21.35 21.06,21.65 20.59,21.65 20.29,21.35 L 15.59,16.65 C 15.56,16.62 15.53,16.59 15.51,16.56 Z M 10.24,16.97 C 13.96,16.97 16.97,13.96 16.97,10.24 16.97,6.52 13.96,3.5 10.24,3.5 6.52,3.5 3.5,6.52 3.5,10.24 3.5,13.96 6.52,16.97 10.24,16.97 Z M 10.24,16.97" />
  </symbol>

  <symbol viewBox="0 0 25 25" id="edit">
    <path fill="currentColor" d="M 3.63,18.99 L 4.96,20.32 7.66,19.39 18.87,8.12 15.7,4.96 4.52,16.21 3.63,18.99 Z M 20.46,8.64 C 20.46,8.65 20.46,8.65 20.46,8.65 L 20.45,8.65 8.6,20.57 C 8.52,20.65 8.42,20.72 8.31,20.75 L 2.06,22.9 C 1.47,23.1 0.91,22.55 1.1,21.96 L 3.14,15.58 C 3.18,15.46 3.24,15.36 3.33,15.28 L 15.14,3.4 17.42,1.1 C 17.71,0.81 18.19,0.81 18.48,1.1 L 22.7,5.34 C 22.99,5.63 22.99,6.1 22.7,6.4 L 20.46,8.64 Z M 16.76,3.89 L 19.92,7.06 21.11,5.87 17.95,2.69 16.76,3.89 Z M 16.76,3.89" />
  </symbol>

  <symbol viewBox="0 0 25 25" id="delete">
    <path fill="currentColor" d="M 8.15,19.69 L 15.85,19.69 17.89,5.44 6.11,5.44 8.15,19.69 Z M 5.25,3.94 L 9,3.94 9,3.55 C 9,3.14 9.34,2.8 9.75,2.8 L 14.25,2.8 C 14.66,2.8 15,3.14 15,3.55 L 15,3.94 18.75,3.94 21,3.94 C 21.41,3.94 21.75,4.27 21.75,4.69 21.75,5.1 21.41,5.44 21,5.44 L 19.4,5.44 17.24,20.54 C 17.19,20.91 16.87,21.19 16.5,21.19 L 7.5,21.19 C 7.13,21.19 6.81,20.91 6.76,20.54 L 4.6,5.44 3,5.44 C 2.59,5.44 2.25,5.1 2.25,4.69 2.25,4.27 2.59,3.94 3,3.94 L 5.25,3.94 Z M 9.01,9.31 L 10.14,16.06 C 10.2,16.47 10.59,16.75 11,16.68 11.41,16.61 11.68,16.22 11.61,15.81 L 10.49,9.06 C 10.42,8.66 10.04,8.38 9.63,8.45 9.22,8.52 8.94,8.9 9.01,9.31 Z M 13.51,9.06 L 12.39,15.81 C 12.32,16.22 12.59,16.61 13,16.68 13.41,16.75 13.8,16.47 13.86,16.06 L 14.99,9.31 C 15.06,8.9 14.78,8.52 14.37,8.45 13.96,8.38 13.58,8.66 13.51,9.06 Z M 13.51,9.06" />
  </symbol>

  <symbol viewBox="0 0 25 25" id="checkmark">
    <path fill="currentColor" d="M 9.31,17.91 C 9.01,18.18 8.54,18.17 8.26,17.88 L 2.37,11.8 C 2.08,11.51 2.09,11.03 2.39,10.74 2.68,10.45 3.16,10.46 3.45,10.76 L 8.83,16.31 20.82,4.68 C 21.12,4.39 21.59,4.4 21.88,4.7 22.17,5 22.16,5.47 21.86,5.76 L 9.43,17.82 C 9.39,17.85 9.35,17.88 9.31,17.91 Z M 9.31,17.91" />
  </symbol>

  <symbol viewBox="0 0 25 25" id="close">
    <path fill="currentColor" d="M 12,10.94 L 18.74,4.2 C 19.04,3.9 19.51,3.9 19.8,4.2 20.1,4.49 20.1,4.96 19.8,5.26 L 13.06,12 19.8,18.74 C 20.1,19.04 20.1,19.51 19.8,19.8 19.51,20.1 19.04,20.1 18.74,19.8 L 12,13.06 5.26,19.8 C 4.96,20.1 4.49,20.1 4.2,19.8 3.9,19.51 3.9,19.04 4.2,18.74 L 10.94,12 4.2,5.26 C 3.9,4.96 3.9,4.49 4.2,4.2 4.49,3.9 4.96,3.9 5.26,4.2 L 12,10.94 Z M 12,10.94" />
  </symbol>

  <symbol viewBox="0 0 25 25" id="plus">
    <path fill="currentColor" d="M 12.75,11.25 L 20,11.25 C 20.41,11.25 20.75,11.59 20.75,12 20.75,12.41 20.41,12.75 20,12.75 L 12.75,12.75 12.75,20 C 12.75,20.41 12.41,20.75 12,20.75 11.59,20.75 11.25,20.41 11.25,20 L 11.25,12.75 4,12.75 C 3.59,12.75 3.25,12.41 3.25,12 3.25,11.59 3.59,11.25 4,11.25 L 11.25,11.25 11.25,4 C 11.25,3.59 11.59,3.25 12,3.25 12.41,3.25 12.75,3.59 12.75,4 L 12.75,11.25 Z M 12.75,11.25" />
  </symbol>

  <symbol viewBox="0 0 25 25" id="logout">
    <path stroke="currentColor" fill="none" d="M 11.82,2.5 L 6,2.5 C 4.34,2.5 3,3.74 3,5.28 L 3,18.23 C 3,19.76 4.34,21 6,21 L 11.82,21" />
    <path fill="currentColor" d="M 15.76,15.99 L 19.01,12.75 8.55,12.75 C 8.14,12.75 7.8,12.41 7.8,12 7.8,11.59 8.14,11.25 8.55,11.25 L 19.01,11.25 15.76,8.01 C 15.06,7.3 16.12,6.24 16.82,6.95 L 21.35,11.47 C 21.7,11.82 21.61,12.27 21.35,12.53 L 16.82,17.05 C 16.12,17.76 15.06,16.7 15.76,15.99 Z M 15.76,15.99" />
  </symbol>

  <symbol viewBox="0 0 25 25" id="right">
    <path fill="currentColor" d="M 8.23,18.38 L 9.29,19.44 16.36,12.36 15.3,11.3 8.23,18.38 Z M 9.29,19.44 L 16.36,12.36 C 17.07,11.66 16.01,10.6 15.3,11.3 L 8.23,18.38 C 7.53,19.08 8.59,20.14 9.29,19.44 Z M 9.29,4.23 L 8.23,5.29 15.3,12.36 16.36,11.3 9.29,4.23 Z M 8.23,5.29 L 15.3,12.36 C 16.01,13.07 17.07,12.01 16.36,11.3 L 9.29,4.23 C 8.59,3.53 7.53,4.59 8.23,5.29 Z M 8.23,5.29" />
  </symbol>

  <symbol viewBox="0 0 25 25" id="lock">
    <path fill="currentColor" d="M 5.79,20.69 L 18.21,20.69 18.21,11.08 5.79,11.08 5.79,20.69 Z M 6.43,9.58 L 6.43,7.56 C 6.43,4.39 8.92,1.81 12,1.81 15.09,1.81 17.57,4.38 17.57,7.56 L 17.57,9.58 18.96,9.58 C 19.38,9.58 19.71,9.92 19.71,10.33 L 19.71,21.44 C 19.71,21.86 19.38,22.19 18.96,22.19 L 5.04,22.19 C 4.62,22.19 4.29,21.86 4.29,21.44 L 4.29,10.33 C 4.29,9.92 4.62,9.58 5.04,9.58 L 6.43,9.58 Z M 7.93,9.58 L 16.07,9.58 16.07,7.56 C 16.07,5.2 14.25,3.31 12,3.31 9.76,3.31 7.93,5.21 7.93,7.56 L 7.93,9.58 Z M 7.93,9.58" />
  </symbol>

  <symbol viewBox="0 0 25 25" id="unlock">
    <path fill="currentColor" d="M 6.43,9.58 L 6.43,7.56 C 6.43,4.39 8.92,1.81 12,1.81 12.41,1.81 12.75,2.14 12.75,2.56 12.75,2.97 12.41,3.31 12,3.31 9.76,3.31 7.93,5.21 7.93,7.56 L 7.93,9.58 18.96,9.58 C 19.38,9.58 19.71,9.92 19.71,10.33 L 19.71,21.44 C 19.71,21.86 19.38,22.19 18.96,22.19 L 5.04,22.19 C 4.62,22.19 4.29,21.86 4.29,21.44 L 4.29,10.33 C 4.29,9.92 4.62,9.58 5.04,9.58 L 6.43,9.58 Z M 5.79,20.69 L 18.21,20.69 18.21,11.08 5.79,11.08 5.79,20.69 Z M 5.79,20.69" />
  </symbol>

  <symbol viewBox="0 0 25 25" id="arrow">
    <path fill="currentColor" d="M 20.3,12.01 C 20.31,11.83 20.24,11.64 20.07,11.47 L 13,4.4 C 12.29,3.69 11.23,4.75 11.94,5.46 L 17.73,11.25 4,11.25 C 3.59,11.25 3.25,11.59 3.25,12 3.25,12.41 3.59,12.75 4,12.75 L 17.74,12.75 11.94,18.55 C 11.23,19.26 12.29,20.32 13,19.61 L 20.07,12.54 C 20.24,12.38 20.31,12.19 20.3,12.01 Z M 20.3,12.01" />
  </symbol>

  <symbol viewBox="0 0 25 25" id="list">
    <path fill="currentColor" d="M 5.54,14.5 C 5.24,14.5 5,14.16 5,13.75 5,13.34 5.24,13 5.54,13 L 18.46,13 C 18.76,13 19,13.34 19,13.75 19,14.16 18.76,14.5 18.46,14.5 L 5.54,14.5 Z M 5.54,10.5 C 5.24,10.5 5,10.16 5,9.75 5,9.34 5.24,9 5.54,9 L 18.46,9 C 18.76,9 19,9.34 19,9.75 19,10.16 18.76,10.5 18.46,10.5 L 5.54,10.5 Z M 5.54,10.5" />
  </symbol>

  <symbol viewBox="0 0 25 25" id="short-text">
    <path fill="currentColor" d="M 2.75,10.5 C 2.34,10.5 2,10.16 2,9.75 2,9.34 2.34,9 2.75,9 L 20.75,9 C 21.16,9 21.5,9.34 21.5,9.75 21.5,10.16 21.16,10.5 20.75,10.5 L 2.75,10.5 Z M 2.51,15.5 C 2.23,15.5 2,15.16 2,14.75 2,14.34 2.23,14 2.51,14 L 14.72,14 C 15,14 15.23,14.34 15.23,14.75 15.23,15.16 15,15.5 14.72,15.5 L 2.51,15.5 Z M 2.51,15.5" />
  </symbol>

  <symbol viewBox="0 0 25 25" id="info">
    <path fill="currentColor" d="M 12,20.5 C 16.69,20.5 20.5,16.69 20.5,12 20.5,7.31 16.69,3.5 12,3.5 7.31,3.5 3.5,7.31 3.5,12 3.5,16.69 7.31,20.5 12,20.5 Z M 12,22 C 6.48,22 2,17.52 2,12 2,6.48 6.48,2 12,2 17.52,2 22,6.48 22,12 22,17.52 17.52,22 12,22 Z M 11.25,18.11 C 11.25,18.67 11.83,19.03 12.33,18.79 L 13.46,18.24 C 13.83,18.05 13.98,17.61 13.8,17.23 13.62,16.86 13.17,16.71 12.8,16.89 12.79,16.89 12.78,16.9 12.77,16.9 L 12.75,11.44 C 12.75,10.88 12.16,10.52 11.66,10.78 L 10.57,11.33 C 10.2,11.52 10.05,11.97 10.24,12.34 10.43,12.71 10.88,12.86 11.25,12.67 L 11.25,18.11 Z M 12,9 C 12.83,9 13.5,8.33 13.5,7.5 13.5,6.67 12.83,6 12,6 11.17,6 10.5,6.67 10.5,7.5 10.5,8.33 11.17,9 12,9 Z M 12,9" />
  </symbol>

  <symbol viewBox="0 0 25 25" id="filter">
    <path fill="currentColor" d="M 2.45,2 C 2.28,2 2.13,2.1 2.05,2.25 1.97,2.4 1.99,2.58 2.09,2.72 L 9.49,12.86 9.49,18.28 C 9.49,18.41 9.56,18.54 9.66,18.63 L 13.77,21.9 C 13.9,22.01 14.09,22.03 14.25,21.95 14.4,21.88 14.5,21.72 14.5,21.54 L 14.5,12.86 21.91,2.72 C 22.01,2.58 22.03,2.4 21.95,2.25 21.87,2.1 21.72,2 21.55,2 L 2.45,2 Z M 2.45,2" />
  </symbol>

  <symbol viewBox="0 0 25 25" id="stack">
    <path fill="currentColor" d="M 20.95,7.79 C 20.95,7.12 20.6,6.5 20.01,6.17 L 13.39,2.38 C 12.52,1.87 11.44,1.87 10.57,2.38 L 3.97,6.17 C 3.38,6.5 3.02,7.13 3.02,7.8 3.02,8.47 3.38,9.09 3.97,9.43 L 4.79,9.9 3.95,10.39 C 3.36,10.72 3,11.34 3,12.02 3,12.69 3.36,13.31 3.95,13.64 L 4.79,14.11 3.95,14.6 C 3.36,14.94 3,15.56 3,16.23 3,16.9 3.36,17.53 3.95,17.86 L 10.57,21.63 C 11.44,22.12 12.5,22.12 13.36,21.63 L 19.99,17.84 C 20.58,17.5 20.94,16.88 20.94,16.21 20.94,15.53 20.58,14.91 19.99,14.58 L 19.17,14.11 20.01,13.62 C 20.6,13.29 20.96,12.66 20.96,11.99 20.96,11.32 20.6,10.7 20.01,10.36 L 19.17,9.9 20.01,9.4 C 20.6,9.07 20.95,8.46 20.95,7.79 Z M 11.51,3.99 C 11.8,3.83 12.16,3.83 12.45,3.99 L 19.08,7.79 12.45,11.58 C 12.16,11.75 11.8,11.75 11.51,11.58 L 4.88,7.79 11.51,3.99 Z M 19.08,16.22 L 12.45,20.01 C 12.16,20.18 11.8,20.18 11.51,20.01 L 4.88,16.22 6.69,15.19 10.57,17.41 C 11.44,17.91 12.5,17.91 13.36,17.41 L 17.25,15.19 19.08,16.22 Z M 19.08,12 L 12.45,15.8 C 12.16,15.97 11.8,15.97 11.51,15.8 L 4.88,12 6.69,10.97 10.57,13.2 C 11.44,13.69 12.5,13.69 13.36,13.2 L 17.25,10.97 19.08,12 Z M 19.08,12" />
  </symbol>

  <symbol viewBox="0 0 25 25" id="sync">
    <path fill="currentColor" d="M 5.01,12.45 C 4.89,10.39 5.62,8.28 7.2,6.7 9.45,4.45 12.77,3.93 15.51,5.13 L 14.1,6.55 C 12.17,5.98 10,6.46 8.48,7.98 7.26,9.21 6.71,10.85 6.84,12.45 L 9.77,12.45 6.14,16.09 2.5,12.45 5.01,12.45 Z M 19.99,11.55 C 20.11,13.61 19.38,15.72 17.8,17.3 15.55,19.55 12.23,20.07 9.49,18.87 L 10.9,17.45 C 12.83,18.02 15,17.54 16.52,16.02 17.74,14.79 18.29,13.15 18.16,11.55 L 15.23,11.55 18.86,7.91 22.5,11.55 19.99,11.55 Z M 19.99,11.55" />
  </symbol>

  <symbol viewBox="0 0 25 25" id="chart">
    <path fill="currentColor" d="M 13.32,17.22 L 9.04,7.79 6.92,12.49 C 6.84,12.66 6.66,12.78 6.46,12.78 L 3.79,12.78 C 3.38,12.78 3.04,12.44 3.04,12.03 3.04,11.62 3.38,11.28 3.79,11.28 L 5.69,11.28 C 5.77,11.28 5.84,11.23 5.87,11.16 L 7.81,6.87 C 7.64,6.62 7.53,6.32 7.53,6 7.53,5.17 8.21,4.5 9.03,4.5 9.86,4.5 10.53,5.17 10.53,6 10.53,6.32 10.43,6.62 10.26,6.86 L 14.63,16.46 17.49,11.48 C 17.56,11.36 17.69,11.28 17.84,11.28 L 20.65,11.28 C 21.07,11.28 21.4,11.62 21.4,12.03 21.4,12.44 21.07,12.78 20.65,12.78 L 18.71,12.78 C 18.56,12.78 18.43,12.86 18.36,12.98 L 15.9,17.25 C 16.03,17.47 16.1,17.73 16.1,18 16.1,18.83 15.43,19.5 14.6,19.5 13.77,19.5 13.1,18.83 13.1,18 13.1,17.71 13.18,17.44 13.32,17.22 Z M 13.32,17.22" />
  </symbol>

  <symbol viewBox="0 0 25 25" id="humidity">
    <path fill="currentColor" d="M 11.89,2 C 11.89,2 4,8.86 4,14.11 4,18.47 7.53,22 11.89,22 16.24,22 19.77,18.47 19.77,14.11 19.77,9.03 11.89,2 11.89,2 Z M 11.89,19.84 C 8.73,19.84 6.16,17.27 6.16,14.11 6.16,13.75 6.45,13.46 6.81,13.46 7.17,13.46 7.46,13.75 7.46,14.11 7.46,16.55 9.44,18.54 11.89,18.54 12.25,18.54 12.54,18.83 12.54,19.19 12.54,19.55 12.25,19.84 11.89,19.84 Z M 11.89,19.84" />
  </symbol>

  <symbol viewBox="0 0 25 25" id="temperature">
    <path fill="currentColor" d="M 12,14.58 L 12,4.9 C 12,3.6 10.94,2.55 9.65,2.55 8.35,2.55 7.29,3.6 7.29,4.9 L 7.29,14.58 C 6.31,15.32 5.72,16.47 5.72,17.73 5.72,19.89 7.48,21.65 9.65,21.65 11.81,21.65 13.57,19.89 13.57,17.73 13.57,16.47 12.98,15.32 12,14.58 Z M 9.65,20.61 C 8.06,20.61 6.77,19.32 6.77,17.73 6.77,16.61 7.4,15.64 8.34,15.16 L 8.34,4.9 C 8.34,4.18 8.92,3.59 9.65,3.59 10.37,3.59 10.95,4.18 10.95,4.9 L 10.95,15.16 C 11.89,15.64 12.52,16.61 12.52,17.73 12.52,19.32 11.24,20.61 9.65,20.61 Z M 9.65,20.61" />
  </symbol>

  <symbol viewBox="0 0 25 25" id="battery">
    <path fill="currentColor" d="M 16.25,11.5 L 16.25,5.75 14,5.75 C 13.58,5.75 13.25,5.41 13.25,5 L 13.25,3.75 10.75,3.75 10.75,5 C 10.75,5.41 10.42,5.75 10,5.75 L 7.75,5.75 7.75,11.5 16.25,11.5 Z M 14.75,4.25 L 16.9,4.25 C 17.37,4.25 17.75,4.64 17.75,5.1 L 17.75,20.9 C 17.75,21.36 17.37,21.75 16.9,21.75 L 7.1,21.75 C 6.62,21.75 6.25,21.36 6.25,20.9 L 6.25,5.1 C 6.25,4.63 6.64,4.25 7.1,4.25 L 9.25,4.25 9.25,3 C 9.25,2.59 9.59,2.25 10,2.25 L 14,2.25 C 14.41,2.25 14.75,2.59 14.75,3 L 14.75,4.25 Z M 14.75,4.25" />
  </symbol>

  <symbol viewBox="0 0 25 25" id="battery-plugged-in">
    <path fill="currentColor" d="M 2.8,17.47 C 2.79,17.46 2.78,17.45 2.77,17.44 L 0.61,15.7 C 0.26,15.41 0,14.87 0,14.42 L 0,11.72 C 0,11.13 0.48,10.65 1.07,10.65 L 1.38,10.65 1.38,8.52 C 1.38,8.11 1.72,7.77 2.13,7.77 2.54,7.77 2.87,8.11 2.87,8.52 L 2.87,10.65 4.16,10.65 4.16,8.52 C 4.16,8.11 4.49,7.77 4.9,7.77 5.31,7.77 5.65,8.11 5.65,8.52 L 5.65,10.65 6.01,10.65 C 6.61,10.65 7.09,11.13 7.09,11.72 L 7.09,14.42 C 7.09,14.88 6.83,15.41 6.47,15.7 L 4.42,17.33 C 6.21,20.14 9.3,21.88 12.69,21.88 18.11,21.88 22.51,17.46 22.51,12 22.51,6.54 18.11,2.12 12.69,2.12 11.17,2.12 9.7,2.46 8.36,3.13 7.48,3.57 6.66,4.13 5.94,4.82 5.73,5.01 5.53,5.23 5.31,5.48 5.04,5.79 4.57,5.82 4.26,5.55 3.95,5.27 3.92,4.8 4.19,4.49 4.44,4.21 4.68,3.96 4.92,3.74 5.75,2.95 6.68,2.3 7.7,1.79 9.24,1.03 10.93,0.63 12.69,0.63 18.94,0.63 24,5.72 24,12 24,18.28 18.94,23.37 12.69,23.37 8.59,23.37 4.87,21.16 2.87,17.64 2.84,17.59 2.81,17.53 2.8,17.47 Z M 15.27,8.01 L 13.37,11.19 14.7,11.19 C 15.28,11.19 15.64,11.82 15.34,12.32 L 12.78,16.62 C 12.57,16.97 12.11,17.09 11.75,16.88 11.4,16.67 11.29,16.21 11.5,15.86 L 13.39,12.68 12.06,12.68 C 11.48,12.68 11.13,12.05 11.42,11.55 L 13.99,7.25 C 14.2,6.9 14.66,6.78 15.01,6.99 15.37,7.2 15.48,7.66 15.27,8.01 Z M 15.27,8.01" />
  </symbol>

  <symbol viewBox="0 0 25 25" id="battery-unknown">
    <g>
      <path id="iconfillbatteryunkown-bezier" stroke="none" fill="rgb(42, 44, 45)" d="M 19.98,14.19 L 19.98,16.34 C 19.98,16.82 19.59,17.19 19.12,17.19 L 3.33,17.19 C 2.86,17.19 2.48,16.82 2.48,16.34 L 2.48,6.54 C 2.48,6.07 2.86,5.69 3.33,5.69 L 19.12,5.69 C 19.6,5.69 19.98,6.08 19.98,6.54 L 19.98,8.69 21.22,8.69 C 21.64,8.69 21.98,9.03 21.98,9.44 L 21.98,13.44 C 21.98,13.86 21.64,14.19 21.22,14.19 L 19.98,14.19 Z M 19.98,14.19" />
      <path id="iconfillbatteryunkown-bezier2" stroke="none" fill="rgb(255, 255, 255)" d="M 18.98,6.72 L 3.5,6.75 3.5,16.26 18.98,16.26 18.98,13.44 C 18.98,13.03 19.31,12.69 19.73,12.69 L 20.98,12.69 20.98,10.19 19.73,10.2 C 19.31,10.2 18.98,9.86 18.98,9.45 L 18.98,6.72 Z M 18.98,6.72" />
      <ellipse id="iconfillbatteryunkown-oval" stroke="none" fill="rgb(42, 44, 45)" cx="15" cy="15" rx="5.5" ry="5.35" />
      <path id="iconfillbatteryunkown-bezier3" fill-rule="evenodd" stroke="none" fill="rgb(255, 255, 255)" d="M 14.23,18.07 C 14.27,17.97 14.33,17.89 14.4,17.82 14.47,17.75 14.56,17.7 14.66,17.66 14.76,17.62 14.86,17.6 14.98,17.6 15.09,17.6 15.19,17.62 15.29,17.66 15.39,17.7 15.47,17.75 15.55,17.82 15.62,17.89 15.67,17.97 15.71,18.07 15.76,18.16 15.78,18.27 15.78,18.37 15.78,18.48 15.76,18.58 15.71,18.68 15.67,18.77 15.62,18.86 15.55,18.92 15.47,18.99 15.39,19.05 15.29,19.09 15.19,19.13 15.09,19.14 14.98,19.14 14.86,19.14 14.76,19.13 14.66,19.09 14.56,19.05 14.47,18.99 14.4,18.92 14.33,18.86 14.27,18.77 14.23,18.68 14.19,18.58 14.17,18.48 14.17,18.37 14.17,18.27 14.19,18.16 14.23,18.07 Z M 14.23,18.07" />
      <path id="iconfillbatteryunkown-bezier4" fill-rule="evenodd" stroke="none" fill="rgb(255, 255, 255)" d="M 12.94,12.42 C 13.06,12.32 13.19,12.22 13.33,12.13 13.48,12.04 13.63,11.96 13.8,11.89 13.97,11.82 14.15,11.76 14.34,11.72 14.54,11.69 14.75,11.67 14.98,11.67 15.29,11.67 15.57,11.71 15.82,11.79 16.08,11.87 16.29,11.99 16.47,12.14 16.65,12.3 16.79,12.48 16.89,12.7 16.99,12.91 17.04,13.15 17.04,13.42 17.04,13.68 17,13.91 16.93,14.1 16.85,14.29 16.75,14.45 16.63,14.6 16.51,14.73 16.38,14.86 16.24,14.96 16.11,15.06 15.97,15.16 15.85,15.25 15.73,15.34 15.62,15.43 15.53,15.52 15.44,15.61 15.38,15.71 15.37,15.81 L 15.24,16.57 14.34,16.57 14.25,15.73 C 14.25,15.71 14.25,15.7 14.25,15.68 L 14.25,15.64 C 14.25,15.49 14.29,15.36 14.36,15.25 14.44,15.13 14.54,15.03 14.66,14.93 14.77,14.83 14.9,14.74 15.04,14.65 15.17,14.55 15.3,14.45 15.41,14.34 15.53,14.24 15.63,14.11 15.71,13.98 15.78,13.84 15.82,13.68 15.82,13.49 15.82,13.37 15.8,13.26 15.75,13.16 15.7,13.06 15.64,12.98 15.55,12.91 15.47,12.84 15.36,12.78 15.25,12.75 15.13,12.71 15,12.69 14.86,12.69 14.66,12.69 14.49,12.71 14.35,12.75 14.21,12.8 14.09,12.85 13.99,12.9 13.89,12.95 13.81,13 13.74,13.04 13.67,13.09 13.61,13.11 13.56,13.11 13.43,13.11 13.34,13.06 13.28,12.95 L 12.94,12.42 Z M 12.94,12.42" />
    </g>
  </symbol>

  <symbol viewBox="0 0 25 25" id="battery-low">
    <path fill="currentColor" d="M 7.5,16.25 L 18.25,16.25 18.25,14 C 18.25,13.58 18.59,13.25 19,13.25 L 20.25,13.25 20.25,10.75 19,10.75 C 18.59,10.75 18.25,10.42 18.25,10 L 18.25,7.75 7.5,7.75 7.5,16.25 Z M 19.75,14.75 L 19.75,16.9 C 19.75,17.37 19.36,17.75 18.9,17.75 L 3.1,17.75 C 2.64,17.75 2.25,17.37 2.25,16.9 L 2.25,7.1 C 2.25,6.62 2.64,6.25 3.1,6.25 L 18.9,6.25 C 19.37,6.25 19.75,6.64 19.75,7.1 L 19.75,9.25 21,9.25 C 21.41,9.25 21.75,9.59 21.75,10 L 21.75,14 C 21.75,14.41 21.41,14.75 21,14.75 L 19.75,14.75 Z M 19.75,14.75" />
  </symbol>

  <symbol viewBox="0 0 25 25" id="battery-medium">
    <path fill="currentColor" d="M 12.5,16.25 L 18.25,16.25 18.25,14 C 18.25,13.58 18.59,13.25 19,13.25 L 20.25,13.25 20.25,10.75 19,10.75 C 18.59,10.75 18.25,10.42 18.25,10 L 18.25,7.75 12.5,7.75 12.5,16.25 Z M 19.75,14.75 L 19.75,16.9 C 19.75,17.37 19.36,17.75 18.9,17.75 L 3.1,17.75 C 2.64,17.75 2.25,17.37 2.25,16.9 L 2.25,7.1 C 2.25,6.62 2.64,6.25 3.1,6.25 L 18.9,6.25 C 19.37,6.25 19.75,6.64 19.75,7.1 L 19.75,9.25 21,9.25 C 21.41,9.25 21.75,9.59 21.75,10 L 21.75,14 C 21.75,14.41 21.41,14.75 21,14.75 L 19.75,14.75 Z M 19.75,14.75" />
  </symbol>

  <symbol viewBox="0 0 25 25" id="battery-high">
    <path fill="currentColor" d="M 16.5,16.25 L 18.25,16.25 18.25,14 C 18.25,13.58 18.59,13.25 19,13.25 L 20.25,13.25 20.25,10.75 19,10.75 C 18.59,10.75 18.25,10.42 18.25,10 L 18.25,7.75 16.5,7.75 16.5,16.25 Z M 19.75,14.75 L 19.75,16.9 C 19.75,17.37 19.36,17.75 18.9,17.75 L 3.1,17.75 C 2.64,17.75 2.25,17.37 2.25,16.9 L 2.25,7.1 C 2.25,6.62 2.64,6.25 3.1,6.25 L 18.9,6.25 C 19.37,6.25 19.75,6.64 19.75,7.1 L 19.75,9.25 21,9.25 C 21.41,9.25 21.75,9.59 21.75,10 L 21.75,14 C 21.75,14.41 21.41,14.75 21,14.75 L 19.75,14.75 Z M 19.75,14.75" />
  </symbol>

  <symbol viewBox="0 0 25 25" id="battery-full">
    <path fill="currentColor" d="M 19.75,14.75 L 19.75,16.9 C 19.75,17.37 19.36,17.75 18.9,17.75 L 3.1,17.75 C 2.64,17.75 2.25,17.37 2.25,16.9 L 2.25,7.1 C 2.25,6.62 2.64,6.25 3.1,6.25 L 18.9,6.25 C 19.37,6.25 19.75,6.64 19.75,7.1 L 19.75,9.25 21,9.25 C 21.41,9.25 21.75,9.59 21.75,10 L 21.75,14 C 21.75,14.41 21.41,14.75 21,14.75 L 19.75,14.75 Z M 19.75,14.75" />
  </symbol>

  <symbol viewBox="0 0 25 25" id="door-open">
    <path fill="currentColor" d="M 17.81,2 L 6.53,2 C 6.23,2 6,2.23 6,2.53 L 6,21.47 C 6,21.77 6.23,22 6.53,22 L 17.81,22 C 18.11,22 18.34,21.77 18.34,21.47 L 18.34,2.53 C 18.34,2.23 18.11,2 17.81,2 Z M 17.22,20.86 L 8.59,20.86 12.72,18.74 C 12.74,18.74 12.74,18.72 12.76,18.72 12.82,18.67 12.88,18.61 12.93,18.55 12.95,18.51 12.97,18.46 12.99,18.42 13.01,18.36 13.01,18.32 13.01,18.27 L 13.01,5.73 C 13.01,5.54 12.91,5.35 12.72,5.24 L 8.57,3.14 17.2,3.14 17.2,20.86 17.22,20.86 Z M 11.22,12.34 L 11.22,11.64 C 11.22,11.41 11.41,11.24 11.62,11.24 11.85,11.24 12.02,11.43 12.02,11.64 L 12.02,12.34 C 12.02,12.57 11.83,12.74 11.62,12.74 11.39,12.76 11.22,12.57 11.22,12.34 Z M 11.22,12.34" />
  </symbol>

  <symbol viewBox="0 0 25 25" id="illuminance">
    <path fill="currentColor" d="M 11.73,2.08 C 11.65,2.13 11.53,2.23 11.48,2.32 11.38,2.47 11.38,2.47 11.38,4.32 L 11.38,6.18 10.98,6.25 C 10.14,6.41 9.44,6.69 8.74,7.15 L 8.31,7.44 7.01,6.13 C 5.87,4.99 5.68,4.81 5.54,4.79 5.28,4.74 5.09,4.8 4.92,4.97 4.78,5.12 4.77,5.16 4.77,5.38 4.77,5.71 4.76,5.7 6.23,7.17 L 7.41,8.34 7.15,8.74 C 6.68,9.44 6.38,10.16 6.23,11 L 6.16,11.4 4.3,11.4 C 2.45,11.4 2.45,11.4 2.3,11.5 1.89,11.77 1.9,12.31 2.31,12.56 2.45,12.64 2.55,12.64 4.31,12.64 L 6.16,12.64 6.23,13.04 C 6.38,13.88 6.7,14.66 7.17,15.34 L 7.41,15.69 6.1,17.01 C 4.98,18.14 4.8,18.34 4.77,18.49 4.72,18.74 4.77,18.93 4.95,19.1 5.09,19.24 5.13,19.25 5.36,19.25 5.69,19.25 5.68,19.27 7.15,17.79 L 8.32,16.61 8.72,16.88 C 9.42,17.34 10.14,17.64 10.98,17.79 L 11.38,17.86 11.38,19.72 C 11.38,21.47 11.38,21.58 11.47,21.71 11.72,22.12 12.25,22.13 12.52,21.73 12.62,21.58 12.62,21.58 12.62,19.72 L 12.62,17.86 13.02,17.79 C 13.86,17.64 14.58,17.34 15.28,16.88 L 15.68,16.61 16.94,17.87 C 17.64,18.57 18.27,19.17 18.36,19.21 18.76,19.41 19.26,19.09 19.25,18.64 19.24,18.37 19.27,18.39 17.67,16.78 L 16.59,15.69 16.83,15.34 C 17.3,14.66 17.62,13.88 17.77,13.05 L 17.84,12.64 19.7,12.64 C 21.55,12.64 21.55,12.64 21.71,12.54 22.11,12.28 22.1,11.74 21.69,11.49 21.55,11.4 21.45,11.4 19.69,11.4 L 17.84,11.4 17.77,11 C 17.62,10.16 17.32,9.44 16.85,8.74 L 16.59,8.34 17.77,7.17 C 19.25,5.69 19.23,5.72 19.23,5.38 19.23,5.15 19.22,5.11 19.07,4.96 18.87,4.77 18.6,4.71 18.36,4.83 18.27,4.87 17.64,5.47 16.94,6.17 L 15.68,7.43 15.25,7.15 C 14.56,6.69 13.86,6.41 13.02,6.25 L 12.62,6.18 12.62,4.33 C 12.62,2.57 12.62,2.47 12.53,2.33 12.36,2.04 12.01,1.94 11.73,2.08 Z M 12,12.05 L 12,16.74 11.75,16.71 C 10.66,16.6 9.92,16.33 9.16,15.76 7.64,14.61 6.96,12.62 7.47,10.78 7.9,9.21 9.15,7.95 10.73,7.5 11.09,7.4 11.88,7.3 11.97,7.34 11.99,7.35 12,9.47 12,12.05 Z M 12,12.05" />
  </symbol>

  <symbol viewBox="0 0 25 25" id="error">
    <path fill="currentColor" d="M 12.75,15.47 C 12.75,15.88 12.41,16.22 12,16.22 11.59,16.22 11.25,15.88 11.25,15.47 L 11.25,3.59 C 11.25,3.18 11.59,2.84 12,2.84 12.41,2.84 12.75,3.18 12.75,3.59 L 12.75,15.47 Z M 12,18 C 12.83,18 13.5,18.67 13.5,19.5 13.5,20.33 12.83,21 12,21 11.17,21 10.5,20.33 10.5,19.5 10.5,18.67 11.17,18 12,18 Z M 12,18" />
  </symbol>

  <symbol viewBox="0 0 25 25" id="group">
    <path fill="currentColor" d="M 18.11,19.88 C 17.93,19.88 17.75,19.86 17.58,19.83 17.52,19.82 17.47,19.8 17.41,19.78 17.3,19.75 17.2,19.72 17.09,19.68 17.03,19.66 16.96,19.62 16.9,19.59 16.81,19.55 16.73,19.5 16.64,19.45 16.58,19.41 16.52,19.37 16.46,19.32 16.38,19.27 16.32,19.21 16.25,19.15 16.19,19.09 16.13,19.04 16.08,18.98 16.02,18.92 15.96,18.85 15.91,18.77 15.86,18.71 15.81,18.65 15.77,18.59 15.72,18.5 15.68,18.41 15.63,18.32 15.6,18.26 15.57,18.2 15.54,18.14 15.49,18 15.45,17.87 15.41,17.72 15.36,17.52 15.33,17.31 15.33,17.09 15.33,16.87 15.37,16.65 15.41,16.45 15.45,16.31 15.48,16.18 15.53,16.05 15.58,15.95 15.63,15.86 15.68,15.77 15.7,15.72 15.72,15.68 15.75,15.64 15.82,15.52 15.9,15.41 15.99,15.31 15.99,15.3 16,15.29 16,15.29 16.42,14.79 17,14.45 17.66,14.34 17.81,14.31 17.96,14.29 18.11,14.29 19.65,14.29 20.89,15.54 20.89,17.09 20.89,18.63 19.65,19.88 18.11,19.88 Z M 14.27,16.53 L 9.73,16.53 C 9.58,15.49 9.03,14.58 8.23,13.97 L 10.63,9.57 C 11.06,9.73 11.52,9.82 12,9.82 12.48,9.82 12.94,9.73 13.37,9.57 L 15.77,13.97 C 14.97,14.58 14.42,15.49 14.27,16.53 Z M 7.92,18.98 C 7.87,19.04 7.81,19.09 7.75,19.15 7.69,19.21 7.62,19.27 7.54,19.32 7.48,19.37 7.42,19.41 7.36,19.45 7.27,19.5 7.19,19.55 7.1,19.59 7.04,19.62 6.97,19.66 6.91,19.68 6.8,19.72 6.7,19.75 6.59,19.78 6.53,19.8 6.48,19.82 6.42,19.83 6.25,19.86 6.07,19.88 5.89,19.88 4.35,19.88 3.11,18.63 3.11,17.09 3.11,15.54 4.35,14.29 5.89,14.29 6.04,14.29 6.19,14.31 6.34,14.34 7,14.45 7.58,14.79 8,15.29 8,15.29 8.01,15.3 8.01,15.31 8.1,15.41 8.18,15.52 8.26,15.64 8.28,15.68 8.3,15.72 8.32,15.77 8.37,15.86 8.43,15.95 8.47,16.05 8.52,16.18 8.55,16.31 8.59,16.45 8.63,16.65 8.67,16.87 8.67,17.09 8.67,17.31 8.64,17.52 8.59,17.72 8.55,17.87 8.51,18 8.46,18.14 8.43,18.2 8.4,18.26 8.37,18.32 8.32,18.41 8.28,18.5 8.23,18.59 8.19,18.65 8.14,18.71 8.09,18.77 8.04,18.85 7.98,18.92 7.92,18.98 Z M 9.29,6.51 C 9.28,6.48 9.28,6.45 9.27,6.42 9.24,6.25 9.22,6.09 9.22,5.91 9.22,4.37 10.47,3.12 12,3.12 13.53,3.12 14.78,4.37 14.78,5.91 14.78,6.09 14.76,6.25 14.73,6.42 14.72,6.45 14.72,6.48 14.71,6.51 14.68,6.64 14.64,6.77 14.59,6.9 14.57,6.96 14.54,7.02 14.52,7.08 14.47,7.18 14.42,7.27 14.36,7.36 13.95,8.04 13.26,8.53 12.45,8.66 12.3,8.69 12.15,8.71 12,8.71 11.85,8.71 11.7,8.69 11.55,8.66 10.74,8.53 10.05,8.04 9.64,7.36 9.58,7.27 9.53,7.18 9.48,7.08 9.46,7.02 9.43,6.96 9.41,6.9 9.36,6.77 9.32,6.64 9.29,6.51 Z M 18.11,13.18 C 17.63,13.18 17.17,13.27 16.75,13.43 L 14.34,9.03 C 15.28,8.31 15.89,7.18 15.89,5.91 15.89,3.75 14.14,2 12,2 9.86,2 8.11,3.75 8.11,5.91 8.11,7.18 8.72,8.31 9.66,9.03 L 7.25,13.43 C 6.83,13.27 6.37,13.18 5.89,13.18 3.75,13.18 2,14.93 2,17.09 2,19.24 3.75,21 5.89,21 7.84,21 9.46,19.54 9.73,17.65 L 14.27,17.65 C 14.54,19.54 16.16,21 18.11,21 20.25,21 22,19.24 22,17.09 22,14.93 20.25,13.18 18.11,13.18 Z M 18.11,13.18" />
  </symbol>

  <symbol viewBox="0 0 25 25" id="calendar">
    <path fill="currentColor" d="M 17.75,5.19 L 21.44,5.19 C 21.86,5.19 22.19,5.53 22.19,5.94 L 22.19,21.5 C 22.19,21.91 21.86,22.25 21.44,22.25 L 2.56,22.25 C 2.14,22.25 1.81,21.91 1.81,21.5 L 1.81,5.94 C 1.81,5.53 2.14,5.19 2.56,5.19 L 6.25,5.19 6.25,2.61 C 6.25,2.19 6.59,1.86 7,1.86 7.41,1.86 7.75,2.19 7.75,2.61 L 7.75,5.19 16.25,5.19 16.25,2.61 C 16.25,2.2 16.59,1.86 17,1.86 17.41,1.86 17.75,2.2 17.75,2.61 L 17.75,5.19 Z M 17.75,6.69 L 17.75,7.06 C 17.75,7.48 17.41,7.81 17,7.81 16.59,7.81 16.25,7.48 16.25,7.06 L 16.25,6.69 7.75,6.69 7.75,7.06 C 7.75,7.47 7.41,7.81 7,7.81 6.59,7.81 6.25,7.47 6.25,7.06 L 6.25,6.69 3.31,6.69 3.31,20.75 20.69,20.75 20.69,6.69 17.75,6.69 Z M 10.33,15.38 C 10.33,15.08 10.57,14.83 10.88,14.83 L 13.12,14.83 C 13.42,14.83 13.67,15.07 13.67,15.38 L 13.67,17.62 C 13.67,17.92 13.43,18.17 13.12,18.17 L 10.88,18.17 C 10.58,18.17 10.33,17.93 10.33,17.62 L 10.33,15.38 Z M 15.33,15.38 C 15.33,15.08 15.57,14.83 15.88,14.83 L 18.12,14.83 C 18.42,14.83 18.67,15.07 18.67,15.38 L 18.67,17.62 C 18.67,17.92 18.43,18.17 18.12,18.17 L 15.88,18.17 C 15.58,18.17 15.33,17.93 15.33,17.62 L 15.33,15.38 Z M 5.33,15.38 C 5.33,15.08 5.57,14.83 5.88,14.83 L 8.12,14.83 C 8.42,14.83 8.67,15.07 8.67,15.38 L 8.67,17.62 C 8.67,17.92 8.43,18.17 8.12,18.17 L 5.88,18.17 C 5.58,18.17 5.33,17.93 5.33,17.62 L 5.33,15.38 Z M 10.33,10.38 C 10.33,10.08 10.57,9.83 10.88,9.83 L 13.12,9.83 C 13.42,9.83 13.67,10.07 13.67,10.38 L 13.67,12.62 C 13.67,12.92 13.43,13.17 13.12,13.17 L 10.88,13.17 C 10.58,13.17 10.33,12.93 10.33,12.62 L 10.33,10.38 Z M 15.33,10.38 C 15.33,10.08 15.57,9.83 15.88,9.83 L 18.12,9.83 C 18.42,9.83 18.67,10.07 18.67,10.38 L 18.67,12.62 C 18.67,12.92 18.43,13.17 18.12,13.17 L 15.88,13.17 C 15.58,13.17 15.33,12.93 15.33,12.62 L 15.33,10.38 Z M 5.33,10.38 C 5.33,10.08 5.57,9.83 5.88,9.83 L 8.12,9.83 C 8.42,9.83 8.67,10.07 8.67,10.38 L 8.67,12.62 C 8.67,12.92 8.43,13.17 8.12,13.17 L 5.88,13.17 C 5.58,13.17 5.33,12.93 5.33,12.62 L 5.33,10.38 Z M 5.33,10.38" />
  </symbol>

  <symbol viewBox="0 0 25 25" id="clock">
    <path fill="currentColor" d="M 12,20.5 C 16.69,20.5 20.5,16.69 20.5,12 20.5,7.31 16.69,3.5 12,3.5 7.31,3.5 3.5,7.31 3.5,12 3.5,16.69 7.31,20.5 12,20.5 Z M 12.75,10.15 L 12.75,6.44 C 12.75,6.03 12.41,5.69 12,5.69 11.59,5.69 11.25,6.03 11.25,6.44 L 11.25,10.15 C 10.52,10.44 10,11.16 10,12 10,13.1 10.9,14 12,14 12.84,14 13.56,13.48 13.85,12.75 L 17.56,12.75 C 17.97,12.75 18.31,12.41 18.31,12 18.31,11.59 17.97,11.25 17.56,11.25 L 13.85,11.25 C 13.65,10.75 13.25,10.35 12.75,10.15 Z M 12,22 C 6.48,22 2,17.52 2,12 2,6.48 6.48,2 12,2 17.52,2 22,6.48 22,12 22,17.52 17.52,22 12,22 Z M 12,22" />
  </symbol>

  <symbol viewBox="-75 -75 250 250" id="triangle">
    <path fill="currentColor" d="M 50,10 100,85 0,85 z" />
  </symbol>

  <symbol viewBox="0 0 25 25" id="row-long">
    <path fill="currentColor" d="M 2,2 L 22,2 22,7 2,7 2,2 Z M 2,17 L 22,17 22,22 2,22 2,17 Z M 2,9.5 L 22,9.5 22,14.5 2,14.5 2,9.5 Z M 2,9.5" />
  </symbol>

  <symbol viewBox="0 0 25 25" id="row-short">
    <path fill="currentColor" d="M 2,18.25 L 22,18.25 22,22 2,22 2,18.25 Z M 2,12.83 L 22,12.83 22,16.58 2,16.58 2,12.83 Z M 2,7.42 L 22,7.42 22,11.17 2,11.17 2,7.42 Z M 2,2 L 22,2 22,5.75 2,5.75 2,2 Z M 2,2" />
  </symbol>

  <symbol viewBox="0 0 25 25" id="drag-handle">
    <path fill="currentColor" d="M 13.11,10.89 L 13.11,6.44 10.89,6.44 10.89,10.89 6.44,10.89 6.44,13.11 10.89,13.11 10.89,17.56 13.11,17.56 13.11,13.11 17.56,13.11 17.56,10.89 13.11,10.89 13.11,10.89 Z M 12,2 L 15.33,6.44 8.67,6.44 12,2 12,2 Z M 2,12 L 6.44,8.67 6.44,15.33 2,12 2,12 Z M 22,12 L 17.56,15.33 17.56,8.67 22,12 22,12 Z M 12,22 L 15.33,17.56 8.67,17.56 12,22 12,22 Z M 12,22" />
  </symbol>

  <symbol viewBox="0 0 25 25" id="permanent-delete">
    <path fill="currentColor" d="M 12.93,12.11 L 14.93,10.47 C 15.25,10.2 15.3,9.73 15.03,9.41 14.77,9.09 14.3,9.05 13.98,9.31 L 11.75,11.14 12.93,12.11 Z M 11.75,13.09 L 10.57,12.11 8.69,13.66 C 8.37,13.92 8.33,14.39 8.59,14.71 8.86,15.03 9.33,15.08 9.65,14.82 L 11.75,13.09 Z M 5.25,3.94 L 9,3.94 9,3.55 C 9,3.14 9.34,2.8 9.75,2.8 L 14.25,2.8 C 14.66,2.8 15,3.14 15,3.55 L 15,3.94 18.75,3.94 21,3.94 C 21.41,3.94 21.75,4.27 21.75,4.69 21.75,5.1 21.41,5.44 21,5.44 L 19.4,5.44 17.24,20.54 C 17.19,20.91 16.87,21.19 16.5,21.19 L 7.5,21.19 C 7.13,21.19 6.81,20.91 6.76,20.54 L 4.6,5.44 3,5.44 C 2.59,5.44 2.25,5.1 2.25,4.69 2.25,4.27 2.59,3.94 3,3.94 L 5.25,3.94 Z M 12.93,12.11 L 11.75,13.09 13.85,14.82 C 14.17,15.08 14.64,15.03 14.91,14.71 15.17,14.39 15.13,13.92 14.81,13.66 L 12.93,12.11 Z M 10.57,12.11 L 11.75,11.14 9.52,9.31 C 9.2,9.05 8.73,9.09 8.47,9.41 8.2,9.73 8.25,10.2 8.57,10.47 L 10.57,12.11 Z M 10.57,12.11" />
  </symbol>

  <symbol viewBox="0 0 25 25" id="upload-circle">
    <path fill="currentColor" d="M 12.75,9.09 L 15.01,11.34 C 15.3,11.64 15.77,11.64 16.07,11.34 16.36,11.05 16.36,10.58 16.07,10.28 L 12.54,6.76 C 12.54,6.76 12.53,6.75 12.53,6.75 12.24,6.46 11.76,6.46 11.47,6.75 L 7.93,10.28 C 7.64,10.58 7.64,11.05 7.93,11.34 8.23,11.64 8.7,11.64 8.99,11.34 L 11.25,9.09 11.25,15.9 C 11.25,16.34 11.59,16.69 12,16.69 12.41,16.69 12.75,16.34 12.75,15.9 L 12.75,9.09 Z M 12,22 C 6.48,22 2,17.52 2,12 2,6.48 6.48,2 12,2 17.52,2 22,6.48 22,12 22,17.52 17.52,22 12,22 Z M 12,22" />
  </symbol>

  <symbol viewBox="0 0 25 25" id="show-more">
    <path fill="currentColor" d="M 12,2 C 17.52,2 22,6.48 22,12 22,17.52 17.52,22 12,22 6.48,22 2,17.52 2,12 2,6.48 6.48,2 12,2 Z M 12,14 C 13.1,14 14,13.1 14,12 14,10.9 13.1,10 12,10 10.9,10 10,10.9 10,12 10,13.1 10.9,14 12,14 Z M 5.5,14 C 6.6,14 7.5,13.1 7.5,12 7.5,10.9 6.6,10 5.5,10 4.4,10 3.5,10.9 3.5,12 3.5,13.1 4.4,14 5.5,14 Z M 18.5,14 C 19.6,14 20.5,13.1 20.5,12 20.5,10.9 19.6,10 18.5,10 17.4,10 16.5,10.9 16.5,12 16.5,13.1 17.4,14 18.5,14 Z M 18.5,14" />
  </symbol>

  <symbol viewBox="0 0 25 25" id="network">
    <path fill="currentColor" d="M 12.95,22 C 14.5,18.73 15.61,15.51 16.39,12.69 17.75,14.44 18.98,16.33 19.88,18.29 18.22,20.36 15.75,21.76 12.95,22 Z M 2.37,14.38 C 2.72,14.13 3.4,13.67 4.34,13.1 4.53,13.55 4.74,14.03 4.99,14.52 4.73,14.8 4.57,15.18 4.57,15.6 4.57,16.17 4.86,16.67 5.3,16.96 5.19,17.85 5.13,18.6 5.09,19.16 3.78,17.87 2.82,16.22 2.37,14.38 Z M 2.85,8.17 C 3.04,9.16 3.37,10.52 3.95,12.1 3.19,12.55 2.59,12.94 2.17,13.23 2.12,12.83 2.09,12.42 2.09,12.01 2.09,10.65 2.36,9.35 2.85,8.17 Z M 7.01,3.37 C 7.25,3.55 7.63,3.85 8.11,4.25 8.04,4.43 8,4.62 8,4.81 8,5.3 8.22,5.73 8.55,6.03 7.74,7.55 7.13,9.12 6.66,10.61 6.02,10.93 5.42,11.25 4.88,11.56 3.99,9.08 3.75,7.14 3.69,6.57 4.53,5.26 5.67,4.16 7.01,3.37 Z M 20.51,6.6 C 19.87,6.64 19.23,6.71 18.6,6.79 18.45,6.46 18.19,6.19 17.87,6.02 18,5.2 18.09,4.52 18.15,4.03 19.08,4.74 19.88,5.61 20.51,6.6 Z M 14.42,8.73 C 14.86,8.61 15.32,8.49 15.78,8.39 15.9,8.57 16.07,8.73 16.25,8.85 16.14,9.34 16.03,9.86 15.9,10.39 15.4,9.81 14.9,9.25 14.42,8.73 Z M 7.43,16.66 C 7.67,16.37 7.82,16 7.82,15.6 7.82,14.94 7.42,14.36 6.85,14.11 6.91,13.83 6.97,13.54 7.04,13.25 7.18,12.65 7.35,12.02 7.54,11.36 7.62,11.32 7.7,11.28 7.78,11.24 9.27,10.52 11.14,9.73 13.27,9.07 14.04,9.88 14.82,10.75 15.57,11.66 14.78,14.66 13.61,18.16 11.91,21.73 10,20.11 8.54,18.36 7.43,16.66 Z M 6.34,17.22 C 6.4,17.22 6.46,17.21 6.51,17.2 7.53,18.77 8.84,20.39 10.51,21.91 8.87,21.65 7.37,20.99 6.1,20.04 6.12,19.58 6.18,18.57 6.34,17.22 Z M 6,13.03 C 5.94,13.3 5.88,13.56 5.83,13.82 5.62,13.39 5.43,12.96 5.27,12.56 5.58,12.38 5.91,12.2 6.26,12.01 6.16,12.36 6.08,12.7 6,13.03 Z M 9.63,6.45 C 9.91,6.45 10.17,6.38 10.4,6.25 11.04,6.84 11.73,7.5 12.44,8.22 10.77,8.76 9.27,9.38 7.99,9.97 8.4,8.8 8.91,7.6 9.53,6.44 9.57,6.44 9.6,6.45 9.63,6.45 Z M 10.28,3.32 C 10.08,3.23 9.86,3.18 9.63,3.18 9.32,3.18 9.03,3.27 8.78,3.43 8.5,3.2 8.26,3 8.05,2.83 9.09,2.37 10.23,2.08 11.42,2 11.01,2.42 10.64,2.86 10.28,3.32 Z M 17.16,3.36 C 17.11,3.8 17.01,4.68 16.82,5.88 16.11,6.02 15.56,6.62 15.51,7.36 14.85,7.51 14.21,7.68 13.59,7.86 13.31,7.57 13.03,7.3 12.77,7.03 12.2,6.47 11.64,5.95 11.12,5.47 11.21,5.27 11.25,5.05 11.25,4.82 11.25,4.54 11.19,4.28 11.06,4.05 11.62,3.32 12.24,2.63 12.94,2.01 14.47,2.14 15.9,2.62 17.16,3.36 Z M 20.59,17.29 C 19.55,15.2 18.17,13.2 16.73,11.41 16.94,10.59 17.12,9.82 17.28,9.1 17.98,9.03 18.55,8.52 18.71,7.85 19.49,7.74 20.28,7.67 21.09,7.63 21.73,8.95 22.09,10.44 22.09,12.01 22.09,13.95 21.54,15.76 20.59,17.29 Z M 20.59,17.29" />
  </symbol>

  <symbol viewBox="0 0 25 25" id="lock-solid">
    <path fill="currentColor" d="M 6.43,9.58 L 6.43,7.56 C 6.43,4.39 8.92,1.81 12,1.81 15.09,1.81 17.57,4.38 17.57,7.56 L 17.57,9.58 18.96,9.58 C 19.38,9.58 19.71,9.92 19.71,10.33 L 19.71,21.44 C 19.71,21.86 19.38,22.19 18.96,22.19 L 5.04,22.19 C 4.62,22.19 4.29,21.86 4.29,21.44 L 4.29,10.33 C 4.29,9.92 4.62,9.58 5.04,9.58 L 6.43,9.58 Z M 7.93,9.58 L 16.07,9.58 16.07,7.56 C 16.07,5.2 14.25,3.31 12,3.31 9.76,3.31 7.93,5.21 7.93,7.56 L 7.93,9.58 Z M 7.93,9.58" />
  </symbol>

  <symbol viewBox="0 0 25 25" id="group-solid">
    <path fill="currentColor" d="M 14.27,16.53 L 9.73,16.53 C 9.58,15.49 9.03,14.58 8.23,13.97 L 10.63,9.57 C 11.06,9.73 11.52,9.82 12,9.82 12.48,9.82 12.94,9.73 13.37,9.57 L 15.77,13.97 C 14.97,14.58 14.42,15.49 14.27,16.53 Z M 18.11,13.18 C 17.63,13.18 17.17,13.27 16.75,13.43 L 14.34,9.03 C 15.28,8.31 15.89,7.18 15.89,5.91 15.89,3.75 14.14,2 12,2 9.86,2 8.11,3.75 8.11,5.91 8.11,7.18 8.72,8.31 9.66,9.03 L 7.25,13.43 C 6.83,13.27 6.37,13.18 5.89,13.18 3.75,13.18 2,14.93 2,17.09 2,19.24 3.75,21 5.89,21 7.84,21 9.46,19.54 9.73,17.65 L 14.27,17.65 C 14.54,19.54 16.16,21 18.11,21 20.25,21 22,19.24 22,17.09 22,14.93 20.25,13.18 18.11,13.18 Z M 18.11,13.18" />
  </symbol>

  <symbol viewBox="0 0 25 25" id="confirm-check">
    <path fill="currentColor" d="M 11.11,15.49 C 11.14,15.47 11.16,15.45 11.19,15.43 L 17.24,9.68 C 17.54,9.4 17.55,8.92 17.26,8.62 16.98,8.32 16.5,8.31 16.2,8.6 L 10.62,13.9 8.33,11.48 C 8.04,11.18 7.57,11.17 7.27,11.45 6.97,11.74 6.96,12.21 7.24,12.51 L 10.05,15.47 C 10.33,15.77 10.81,15.78 11.11,15.49 Z M 12,2 C 17.52,2 22,6.48 22,12 22,17.52 17.52,22 12,22 6.48,22 2,17.52 2,12 2,6.48 6.48,2 12,2 Z M 12,2" />
  </symbol>

  <symbol viewBox="0 0 25 25" id="confirm-close">
    <path fill="currentColor" d="M 12,10.94 L 7.68,6.62 C 7.39,6.33 6.91,6.33 6.62,6.62 6.33,6.91 6.33,7.39 6.62,7.68 L 10.94,12 6.62,16.32 C 6.33,16.61 6.33,17.09 6.62,17.38 6.91,17.67 7.39,17.67 7.68,17.38 L 12,13.06 16.32,17.38 C 16.61,17.67 17.09,17.67 17.38,17.38 17.67,17.09 17.67,16.61 17.38,16.32 L 13.06,12 17.38,7.68 C 17.67,7.39 17.67,6.91 17.38,6.62 17.09,6.33 16.61,6.33 16.32,6.62 L 12,10.94 Z M 12,22 C 6.48,22 2,17.52 2,12 2,6.48 6.48,2 12,2 17.52,2 22,6.48 22,12 22,17.52 17.52,22 12,22 Z M 12,22" />
  </symbol>

  <symbol viewBox="0 0 25 25" id="confirm-standby">
    <path fill="currentColor" d="M 12,22 C 6.48,22 2,17.52 2,12 2,6.48 6.48,2 12,2 17.52,2 22,6.48 22,12 22,17.52 17.52,22 12,22 Z M 12,17 C 14.76,17 17,14.76 17,12 17,9.24 14.76,7 12,7 9.24,7 7,9.24 7,12 7,14.76 9.24,17 12,17 Z M 12,17" />
  </symbol>

  <symbol viewBox="0 0 25 25" id="confirm-unconfirmed">
    <path fill="currentColor" d="M 12,22 C 6.48,22 2,17.52 2,12 2,6.48 6.48,2 12,2 17.52,2 22,6.48 22,12 22,17.52 17.52,22 12,22 Z M 5.14,12.75 L 18.86,12.75 C 19.27,12.75 19.61,12.41 19.61,12 19.61,11.59 19.27,11.25 18.86,11.25 L 5.14,11.25 C 4.73,11.25 4.39,11.59 4.39,12 4.39,12.41 4.73,12.75 5.14,12.75 Z M 5.14,12.75" />
  </symbol>

  <symbol viewBox="0 0 25 25" id="reset">
    <path fill="currentColor" d="M 21.89,8.25 L 21.45,8.95 C 19.84,4.01 14.7,1.02 9.53,2.19 6.32,2.91 3.86,5.08 2.58,7.85 2.12,8.85 1.8,9.93 1.69,11.06 L 1.68,11.07 1.69,11.07 C 1.71,11.51 2.06,11.87 2.51,11.87 L 2.52,11.87 C 2.96,11.87 3.32,11.51 3.34,11.07 L 3.34,11.07 C 3.77,7.61 6.29,4.61 9.89,3.8 14.14,2.84 18.36,5.23 19.8,9.22 L 19.22,8.85 C 18.29,8.27 17.4,9.66 18.34,10.25 L 20.66,11.73 C 20.89,11.86 21.11,11.89 21.3,11.84 21.49,11.8 21.68,11.69 21.82,11.46 L 23.29,9.14 C 23.88,8.2 22.48,7.32 21.89,8.25 Z M 21.89,8.25" />
    <path fill="currentColor" d="M 2.04,16.04 L 2.48,15.35 C 4.1,20.28 9.23,23.27 14.41,22.11 17.61,21.38 20.08,19.21 21.35,16.45 21.81,15.44 22.13,14.36 22.25,13.24 22.25,13.23 22.25,13.23 22.25,13.22 L 22.24,13.22 C 22.23,12.78 21.87,12.43 21.42,12.43 L 21.42,12.43 C 20.97,12.43 20.61,12.78 20.6,13.22 20.16,16.69 17.65,19.68 14.04,20.49 9.8,21.45 5.57,19.06 4.13,15.07 L 4.71,15.44 C 5.65,16.03 6.53,14.63 5.6,14.04 L 3.27,12.57 C 3.05,12.43 2.83,12.4 2.63,12.45 2.44,12.49 2.25,12.61 2.11,12.83 L 0.64,15.16 C 0.05,16.09 1.45,16.97 2.04,16.04 Z M 2.04,16.04" />
  </symbol>

  <symbol viewBox="0 0 25 25" id="key">
    <path fill="currentColor" d="M 5.56,17.2 C 4.75,17.2 4.09,16.54 4.09,15.73 4.09,14.91 4.75,14.25 5.56,14.25 6.38,14.25 7.03,14.91 7.03,15.73 7.03,16.54 6.38,17.2 5.56,17.2 Z M 21.89,6.59 L 21.21,5.3 C 20.68,4.76 19.77,5.12 19.77,5.12 L 9.61,10.48 C 7.76,9.37 5.34,9.52 3.66,11.04 1.6,12.9 1.43,16.09 3.3,18.15 5.16,20.21 8.34,20.38 10.41,18.51 11.69,17.35 12.24,15.68 12.02,14.09 L 13.04,13.1 C 12.9,12.66 13.2,12.43 13.2,12.43 13.95,11.71 14.32,11.94 14.32,11.94 14.62,12.05 15.1,11.63 15.1,11.63 15.55,11.29 15.62,11.08 15.62,11.08 15.81,9.91 16.81,10.22 16.81,10.22 17.84,10.58 18,9.79 18,9.79 17.9,9.33 18.13,9.04 18.13,9.04 18.13,9.04 19.35,7.97 19.86,8.29 20.37,8.61 21.38,7.74 21.38,7.74 22.3,7.17 21.89,6.59 21.89,6.59 Z M 21.89,6.59" />
  </symbol>

  <symbol viewBox="0 0 25 25" id="download-circle">
    <path fill="currentColor" d="M 11.45,13.67 C 11.59,13.82 11.78,13.92 12,13.92 12.22,13.92 12.42,13.82 12.55,13.67 L 15.51,10.72 C 15.8,10.42 15.8,9.95 15.51,9.66 15.22,9.36 14.74,9.36 14.45,9.66 L 12.75,11.36 12.75,6.5 C 12.75,6.09 12.41,5.75 12,5.75 11.59,5.75 11.25,6.09 11.25,6.5 L 11.25,11.36 9.55,9.66 C 9.26,9.36 8.78,9.36 8.49,9.66 8.2,9.95 8.2,10.42 8.49,10.72 L 11.45,13.67 Z M 12,22 C 6.48,22 2,17.52 2,12 2,6.48 6.48,2 12,2 17.52,2 22,6.48 22,12 22,17.52 17.52,22 12,22 Z M 7.56,16.58 L 16.44,16.58 C 16.86,16.58 17.19,16.25 17.19,15.83 17.19,15.42 16.86,15.08 16.44,15.08 L 7.56,15.08 C 7.14,15.08 6.81,15.42 6.81,15.83 6.81,16.25 7.14,16.58 7.56,16.58 Z M 7.56,16.58" />
  </symbol>

  <symbol viewBox="0 0 25 25" id="integration">
    <path fill="currentColor" d="M 14.88,7.86 C 15.12,8.1 15.12,8.49 14.88,8.73 L 12.47,11.17 C 12.36,11.3 12.2,11.38 12.01,11.38 11.93,11.38 11.85,11.36 11.77,11.33 11.7,11.3 11.63,11.26 11.57,11.2 L 9.13,8.73 C 8.89,8.49 8.89,8.1 9.13,7.86 9.37,7.62 9.76,7.62 10,7.86 L 11.4,9.28 11.4,4.22 11.4,3.23 11.4,1.12 C 11.4,0.78 11.68,0.5 12.01,0.5 12.35,0.5 12.62,0.78 12.62,1.12 L 12.62,3.25 12.62,4.24 12.62,9.26 14.02,7.86 C 14.26,7.62 14.64,7.62 14.88,7.86 Z M 10.27,14.12 C 10.3,14.2 10.32,14.28 10.33,14.36 10.33,14.44 10.32,14.52 10.29,14.6 L 9.15,17.89 C 9.04,18.21 8.69,18.38 8.37,18.27 8.05,18.16 7.88,17.8 8,17.48 L 8.65,15.59 4.16,17.77 3.28,18.19 1.38,19.12 C 1.07,19.26 0.71,19.13 0.56,18.82 0.41,18.52 0.54,18.15 0.85,18 L 2.73,17.09 3.62,16.66 8.12,14.48 6.26,13.82 C 5.94,13.7 5.77,13.35 5.88,13.03 6,12.71 6.35,12.54 6.66,12.65 L 9.88,13.79 C 10.04,13.84 10.19,13.95 10.27,14.12 Z M 23.02,18 C 23.32,18.15 23.45,18.52 23.31,18.82 23.16,19.13 22.79,19.26 22.49,19.12 L 20.51,18.16 19.63,17.73 15.21,15.59 15.87,17.48 C 15.98,17.8 15.82,18.16 15.5,18.27 15.18,18.38 14.83,18.21 14.72,17.89 L 13.57,14.6 C 13.54,14.52 13.53,14.44 13.54,14.36 13.54,14.28 13.56,14.2 13.6,14.12 13.68,13.95 13.83,13.84 13.99,13.79 L 17.2,12.65 C 17.52,12.54 17.87,12.71 17.98,13.03 18.09,13.35 17.93,13.7 17.61,13.82 L 15.75,14.48 20.17,16.62 21.05,17.05 23.02,18 Z M 13.79,3.28 C 18.5,4.2 21.92,8.38 21.92,13.24 21.92,14.16 21.79,15.08 21.54,15.97 21.5,16.15 21.37,16.29 21.21,16.37 21.13,16.4 21.04,16.42 20.95,16.42 20.87,16.42 20.78,16.4 20.69,16.37 20.42,16.24 20.28,15.93 20.36,15.64 20.58,14.86 20.69,14.05 20.69,13.24 20.69,8.97 17.69,5.3 13.55,4.5 13.26,4.44 13.06,4.19 13.06,3.89 13.06,3.71 13.14,3.53 13.28,3.41 13.42,3.3 13.61,3.25 13.79,3.28 Z M 10.75,3.37 C 10.89,3.49 10.97,3.66 10.97,3.84 10.97,4.15 10.75,4.4 10.46,4.45 6.18,5.15 3.08,8.85 3.08,13.24 3.08,14.06 3.19,14.88 3.41,15.67 3.5,15.96 3.36,16.26 3.08,16.39 3,16.43 2.91,16.45 2.82,16.45 2.74,16.45 2.65,16.43 2.57,16.4 2.4,16.32 2.28,16.18 2.23,16 1.98,15.1 1.85,14.17 1.85,13.24 1.85,8.24 5.39,4.04 10.25,3.23 10.43,3.2 10.61,3.25 10.75,3.37 Z M 20.1,18.67 C 20.15,18.85 20.11,19.03 20,19.18 18.12,21.81 15.08,23.38 11.88,23.38 8.7,23.38 5.67,21.82 3.78,19.21 3.68,19.06 3.64,18.87 3.69,18.69 3.73,18.51 3.85,18.36 4.02,18.28 4.28,18.16 4.6,18.24 4.77,18.47 6.42,20.77 9.08,22.14 11.88,22.14 14.7,22.14 17.37,20.76 19.02,18.45 19.19,18.22 19.5,18.14 19.77,18.26 19.93,18.34 20.05,18.49 20.1,18.67 Z M 20.1,18.67" />
  </symbol>

  <symbol viewBox="0 0 25 25" id="integration-solid">
    <path fill="currentColor" d="M 14.88,7.86 C 15.12,8.1 15.12,8.49 14.88,8.73 L 12.47,11.17 C 12.36,11.3 12.2,11.38 12.01,11.38 11.93,11.38 11.85,11.36 11.77,11.33 11.7,11.3 11.63,11.26 11.57,11.2 L 9.13,8.73 C 8.89,8.49 8.89,8.1 9.13,7.86 9.37,7.62 9.76,7.62 10,7.86 L 11.4,9.28 11.4,4.22 11.4,3.23 11.4,1.12 C 11.4,0.78 11.68,0.5 12.01,0.5 12.35,0.5 12.62,0.78 12.62,1.12 L 12.62,3.25 12.62,4.24 12.62,9.26 14.02,7.86 C 14.26,7.62 14.64,7.62 14.88,7.86 Z M 10.27,14.12 C 10.3,14.2 10.32,14.28 10.33,14.36 10.33,14.44 10.32,14.52 10.29,14.6 L 9.15,17.89 C 9.04,18.21 8.69,18.38 8.37,18.27 8.05,18.16 7.88,17.8 8,17.48 L 8.65,15.59 4.16,17.77 3.28,18.19 1.38,19.12 C 1.07,19.26 0.71,19.13 0.56,18.82 0.41,18.52 0.54,18.15 0.85,18 L 2.73,17.09 3.62,16.66 8.12,14.48 6.26,13.82 C 5.94,13.7 5.77,13.35 5.88,13.03 6,12.71 6.35,12.54 6.66,12.65 L 9.88,13.79 C 10.04,13.84 10.19,13.95 10.27,14.12 Z M 23.02,18 C 23.32,18.15 23.45,18.52 23.31,18.82 23.16,19.13 22.79,19.26 22.49,19.12 L 20.51,18.16 19.63,17.73 15.21,15.59 15.87,17.48 C 15.98,17.8 15.82,18.16 15.5,18.27 15.18,18.38 14.83,18.21 14.72,17.89 L 13.57,14.6 C 13.54,14.52 13.53,14.44 13.54,14.36 13.54,14.28 13.56,14.2 13.6,14.12 13.68,13.95 13.83,13.84 13.99,13.79 L 17.2,12.65 C 17.52,12.54 17.87,12.71 17.98,13.03 18.09,13.35 17.93,13.7 17.61,13.82 L 15.75,14.48 20.17,16.62 21.05,17.05 23.02,18 Z M 13.79,3.28 C 18.5,4.2 21.92,8.38 21.92,13.24 21.92,14.16 21.79,15.08 21.54,15.97 21.5,16.15 21.37,16.29 21.21,16.37 21.13,16.4 21.04,16.42 20.95,16.42 20.87,16.42 20.78,16.4 20.69,16.37 20.42,16.24 20.28,15.93 20.36,15.64 20.58,14.86 20.69,14.05 20.69,13.24 20.69,8.97 17.69,5.3 13.55,4.5 13.26,4.44 13.06,4.19 13.06,3.89 13.06,3.71 13.14,3.53 13.28,3.41 13.42,3.3 13.61,3.25 13.79,3.28 Z M 10.75,3.37 C 10.89,3.49 10.97,3.66 10.97,3.84 10.97,4.15 10.75,4.4 10.46,4.45 6.18,5.15 3.08,8.85 3.08,13.24 3.08,14.06 3.19,14.88 3.41,15.67 3.5,15.96 3.36,16.26 3.08,16.39 3,16.43 2.91,16.45 2.82,16.45 2.74,16.45 2.65,16.43 2.57,16.4 2.4,16.32 2.28,16.18 2.23,16 1.98,15.1 1.85,14.17 1.85,13.24 1.85,8.24 5.39,4.04 10.25,3.23 10.43,3.2 10.61,3.25 10.75,3.37 Z M 20.1,18.67 C 20.15,18.85 20.11,19.03 20,19.18 18.12,21.81 15.08,23.38 11.88,23.38 8.7,23.38 5.67,21.82 3.78,19.21 3.68,19.06 3.64,18.87 3.69,18.69 3.73,18.51 3.85,18.36 4.02,18.28 4.28,18.16 4.6,18.24 4.77,18.47 6.42,20.77 9.08,22.14 11.88,22.14 14.7,22.14 17.37,20.76 19.02,18.45 19.19,18.22 19.5,18.14 19.77,18.26 19.93,18.34 20.05,18.49 20.1,18.67 Z M 20.1,18.67" />
  </symbol>

  <symbol viewBox="0 0 25 25" id="devicestate">
    <path fill="currentColor" d="M 6.5,6.5 L 6.5,17.5 17.5,17.5 17.5,6.5 6.5,6.5 Z M 19,17 L 19,18 C 19,18.55 18.55,19 18,19 L 17,19 17,22 15,22 15,19 13,19 13,22 11,22 11,19 9,19 9,22 7,22 7,19 6,19 C 5.45,19 5,18.55 5,18 L 5,17 2,17 2,15 5,15 5,13 2,13 2,11 5,11 5,9 2,9 2,7 5,7 5,6 C 5,5.45 5.45,5 6,5 L 7,5 7,2 9,2 9,5 11,5 11,2 13,2 13,5 15,5 15,2 17,2 17,5 18,5 C 18.55,5 19,5.45 19,6 L 19,7 22,7 22,9 19,9 19,11 22,11 22,13 19,13 19,15 22,15 22,17 19,17 Z M 8,8 L 8,16 16,16 16,8 8,8 Z M 8,8" />
  </symbol>

  <symbol viewBox="0 0 25 25" id="gpsstate">
    <path fill="currentColor" d="M 13.32,17.22 L 9.04,7.79 6.92,12.49 C 6.84,12.66 6.66,12.78 6.46,12.78 L 3.79,12.78 C 3.38,12.78 3.04,12.44 3.04,12.03 3.04,11.62 3.38,11.28 3.79,11.28 L 5.69,11.28 C 5.77,11.28 5.84,11.23 5.87,11.16 L 7.81,6.87 C 7.64,6.62 7.53,6.32 7.53,6 7.53,5.17 8.21,4.5 9.03,4.5 9.86,4.5 10.53,5.17 10.53,6 10.53,6.32 10.43,6.62 10.26,6.86 L 14.63,16.46 17.49,11.48 C 17.56,11.36 17.69,11.28 17.84,11.28 L 20.65,11.28 C 21.07,11.28 21.4,11.62 21.4,12.03 21.4,12.44 21.07,12.78 20.65,12.78 L 18.71,12.78 C 18.56,12.78 18.43,12.86 18.36,12.98 L 15.9,17.25 C 16.03,17.47 16.1,17.73 16.1,18 16.1,18.83 15.43,19.5 14.6,19.5 13.77,19.5 13.1,18.83 13.1,18 13.1,17.71 13.18,17.44 13.32,17.22 Z M 13.32,17.22" />
  </symbol>

  <symbol viewBox="0 0 25 25" id="latitude">
    <path fill="currentColor" d="M 12.53,21.53 C 12.24,21.82 11.76,21.82 11.47,21.53 11.41,21.47 11.3,21.36 11.16,21.21 10.91,20.95 10.64,20.66 10.35,20.34 9.52,19.42 8.69,18.44 7.91,17.44 7.16,16.48 6.51,15.55 5.96,14.67 4.86,12.88 4.25,11.33 4.25,10.05 4.25,5.74 7.72,2.25 12,2.25 16.28,2.25 19.75,5.74 19.75,10.05 19.75,11.33 19.14,12.88 18.04,14.67 17.49,15.55 16.84,16.48 16.09,17.44 15.31,18.44 14.48,19.42 13.65,20.34 13.36,20.66 13.09,20.95 12.84,21.21 12.7,21.36 12.59,21.47 12.53,21.53 Z M 12.54,19.33 C 13.35,18.44 14.15,17.49 14.91,16.52 15.62,15.6 16.25,14.72 16.76,13.88 17.73,12.31 18.25,10.99 18.25,10.05 18.25,6.57 15.45,3.75 12,3.75 8.55,3.75 5.75,6.57 5.75,10.05 5.75,10.99 6.27,12.31 7.24,13.88 7.75,14.72 8.38,15.6 9.09,16.52 9.85,17.49 10.65,18.44 11.46,19.33 11.65,19.54 11.83,19.74 12,19.92 12.17,19.74 12.35,19.54 12.54,19.33 Z M 12,13.25 C 10.21,13.25 8.75,11.79 8.75,10 8.75,8.21 10.21,6.75 12,6.75 13.79,6.75 15.25,8.21 15.25,10 15.25,11.79 13.79,13.25 12,13.25 Z M 12,11.75 C 12.97,11.75 13.75,10.97 13.75,10 13.75,9.03 12.97,8.25 12,8.25 11.03,8.25 10.25,9.03 10.25,10 10.25,10.97 11.03,11.75 12,11.75 Z M 12,11.75" />
  </symbol>

  <symbol viewBox="0 0 25 25" id="longitude">
    <path fill="currentColor" d="M 12.53,21.53 C 12.24,21.82 11.76,21.82 11.47,21.53 11.41,21.47 11.3,21.36 11.16,21.21 10.91,20.95 10.64,20.66 10.35,20.34 9.52,19.42 8.69,18.44 7.91,17.44 7.16,16.48 6.51,15.55 5.96,14.67 4.86,12.88 4.25,11.33 4.25,10.05 4.25,5.74 7.72,2.25 12,2.25 16.28,2.25 19.75,5.74 19.75,10.05 19.75,11.33 19.14,12.88 18.04,14.67 17.49,15.55 16.84,16.48 16.09,17.44 15.31,18.44 14.48,19.42 13.65,20.34 13.36,20.66 13.09,20.95 12.84,21.21 12.7,21.36 12.59,21.47 12.53,21.53 Z M 12.54,19.33 C 13.35,18.44 14.15,17.49 14.91,16.52 15.62,15.6 16.25,14.72 16.76,13.88 17.73,12.31 18.25,10.99 18.25,10.05 18.25,6.57 15.45,3.75 12,3.75 8.55,3.75 5.75,6.57 5.75,10.05 5.75,10.99 6.27,12.31 7.24,13.88 7.75,14.72 8.38,15.6 9.09,16.52 9.85,17.49 10.65,18.44 11.46,19.33 11.65,19.54 11.83,19.74 12,19.92 12.17,19.74 12.35,19.54 12.54,19.33 Z M 12,13.25 C 10.21,13.25 8.75,11.79 8.75,10 8.75,8.21 10.21,6.75 12,6.75 13.79,6.75 15.25,8.21 15.25,10 15.25,11.79 13.79,13.25 12,13.25 Z M 12,11.75 C 12.97,11.75 13.75,10.97 13.75,10 13.75,9.03 12.97,8.25 12,8.25 11.03,8.25 10.25,9.03 10.25,10 10.25,10.97 11.03,11.75 12,11.75 Z M 12,11.75" />
  </symbol>

  <symbol viewBox="0 0 25 25" id="external-link">
    <path id="externalLink-bezier" stroke="currentColor" stroke-width="1.5" stroke-miterlimit="10" fill="none" d="M 8.96,3.58 L 0.5,3.58 0.5,20.5 17.42,20.5 17.42,12.04" />
    <path id="externalLink-bezier2" stroke="currentColor" stroke-width="1.5" stroke-miterlimit="10" fill="none" d="M 7.58,13.42 L 20.5,0.5" />
    <path id="externalLink-bezier3" stroke="currentColor" stroke-width="1.5" stroke-miterlimit="10" fill="none" d="M 20.5,10.5 L 20.5,0.5 10.5,0.5" />
  </symbol>
</svg>
