<svg xmlns="http://www.w3.org/2000/svg" viewBox="0 0 500 463.85">
  <title>MQ_500</title>
  <g id="Layer_2" data-name="Layer 2">
    <g id="Layer_1-2" data-name="Layer 1">
      <path d="M419.51,368.14A233.2,233.2,0,0,0,463.86,232c0-160-162.89-282.73-331.48-211A210.6,210.6,0,0,0,21,132.37c-71.69,168.69,51,331.48,211,331.48H500V368H419.51Zm-71.09-53.46-54.36-73.59-76.89,57.17,56.17,75.68L230,375.05c-75.09,0-140.16-65.28-140.16-140.37C89.83,150.49,156.9,90.52,232,90.52c83.7,0,142.47,67.68,142.47,145.16C374.35,262.42,364.94,292.65,348.42,314.68Z" style="fill: #f04c24"/>
    </g>
  </g>
</svg>
